<svg width="100" height="100" viewBox="0 0 100 100" fill="none" xmlns="http://www.w3.org/2000/svg">
<path d="M24.648 59C24.488 59 24.344 58.944 24.216 58.832C24.104 58.72 24.048 58.576 24.048 58.4V46.472L20.592 49.136C20.448 49.248 20.296 49.288 20.136 49.256C19.992 49.224 19.864 49.136 19.752 48.992L18.552 47.432C18.456 47.288 18.416 47.136 18.432 46.976C18.464 46.816 18.552 46.688 18.696 46.592L24.168 42.368C24.264 42.304 24.352 42.264 24.432 42.248C24.528 42.216 24.632 42.2 24.744 42.2H27.288C27.448 42.2 27.584 42.256 27.696 42.368C27.808 42.48 27.864 42.624 27.864 42.8V58.4C27.864 58.576 27.808 58.72 27.696 58.832C27.584 58.944 27.448 59 27.288 59H24.648ZM37.5004 59.24C36.3484 59.24 35.3564 59.08 34.5244 58.76C33.7084 58.424 33.0284 57.968 32.4844 57.392C31.9564 56.8 31.5564 56.12 31.2844 55.352C31.0284 54.568 30.8764 53.736 30.8284 52.856C30.8124 52.424 30.7964 51.944 30.7804 51.416C30.7804 50.872 30.7804 50.328 30.7804 49.784C30.7964 49.24 30.8124 48.744 30.8284 48.296C30.8604 47.416 31.0124 46.592 31.2844 45.824C31.5724 45.056 31.9884 44.384 32.5324 43.808C33.0764 43.232 33.7564 42.784 34.5724 42.464C35.4044 42.128 36.3804 41.96 37.5004 41.96C38.6204 41.96 39.5884 42.128 40.4044 42.464C41.2204 42.784 41.9004 43.232 42.4444 43.808C42.9884 44.384 43.3964 45.056 43.6684 45.824C43.9564 46.592 44.1244 47.416 44.1724 48.296C44.1884 48.744 44.1964 49.24 44.1964 49.784C44.2124 50.328 44.2124 50.872 44.1964 51.416C44.1964 51.944 44.1884 52.424 44.1724 52.856C44.1244 53.736 43.9644 54.568 43.6924 55.352C43.4204 56.12 43.0124 56.8 42.4684 57.392C41.9404 57.968 41.2604 58.424 40.4284 58.76C39.6124 59.08 38.6364 59.24 37.5004 59.24ZM37.5004 56.12C38.4284 56.12 39.1084 55.816 39.5404 55.208C39.9724 54.6 40.2044 53.776 40.2364 52.736C40.2524 52.272 40.2604 51.792 40.2604 51.296C40.2764 50.8 40.2764 50.304 40.2604 49.808C40.2604 49.312 40.2524 48.848 40.2364 48.416C40.2044 47.424 39.9724 46.616 39.5404 45.992C39.1084 45.368 38.4284 45.048 37.5004 45.032C36.5564 45.048 35.8684 45.368 35.4364 45.992C35.0204 46.616 34.7964 47.424 34.7644 48.416C34.7484 48.848 34.7324 49.312 34.7164 49.808C34.7164 50.304 34.7164 50.8 34.7164 51.296C34.7324 51.792 34.7484 52.272 34.7644 52.736C34.7964 53.776 35.0284 54.6 35.4604 55.208C35.8924 55.816 36.5724 56.12 37.5004 56.12ZM53.5316 59.24C52.3796 59.24 51.3876 59.08 50.5556 58.76C49.7396 58.424 49.0596 57.968 48.5156 57.392C47.9876 56.8 47.5876 56.12 47.3156 55.352C47.0596 54.568 46.9076 53.736 46.8596 52.856C46.8436 52.424 46.8276 51.944 46.8116 51.416C46.8116 50.872 46.8116 50.328 46.8116 49.784C46.8276 49.24 46.8436 48.744 46.8596 48.296C46.8916 47.416 47.0436 46.592 47.3156 45.824C47.6036 45.056 48.0196 44.384 48.5636 43.808C49.1076 43.232 49.7876 42.784 50.6036 42.464C51.4356 42.128 52.4116 41.96 53.5316 41.96C54.6516 41.96 55.6196 42.128 56.4356 42.464C57.2516 42.784 57.9316 43.232 58.4756 43.808C59.0196 44.384 59.4276 45.056 59.6996 45.824C59.9876 46.592 60.1556 47.416 60.2036 48.296C60.2196 48.744 60.2276 49.24 60.2276 49.784C60.2436 50.328 60.2436 50.872 60.2276 51.416C60.2276 51.944 60.2196 52.424 60.2036 52.856C60.1556 53.736 59.9956 54.568 59.7236 55.352C59.4516 56.12 59.0436 56.8 58.4996 57.392C57.9716 57.968 57.2916 58.424 56.4596 58.76C55.6436 59.08 54.6676 59.24 53.5316 59.24ZM53.5316 56.12C54.4596 56.12 55.1396 55.816 55.5716 55.208C56.0036 54.6 56.2356 53.776 56.2676 52.736C56.2836 52.272 56.2916 51.792 56.2916 51.296C56.3076 50.8 56.3076 50.304 56.2916 49.808C56.2916 49.312 56.2836 48.848 56.2676 48.416C56.2356 47.424 56.0036 46.616 55.5716 45.992C55.1396 45.368 54.4596 45.048 53.5316 45.032C52.5876 45.048 51.8996 45.368 51.4676 45.992C51.0516 46.616 50.8276 47.424 50.7956 48.416C50.7796 48.848 50.7636 49.312 50.7476 49.808C50.7476 50.304 50.7476 50.8 50.7476 51.296C50.7636 51.792 50.7796 52.272 50.7956 52.736C50.8276 53.776 51.0596 54.6 51.4916 55.208C51.9236 55.816 52.6036 56.12 53.5316 56.12ZM64.2109 59C63.8589 59 63.6829 58.84 63.6829 58.52C63.6829 58.424 63.7149 58.336 63.7789 58.256L75.6349 42.656C75.7469 42.512 75.8589 42.4 75.9709 42.32C76.0829 42.24 76.2429 42.2 76.4509 42.2H77.9389C78.2909 42.2 78.4669 42.36 78.4669 42.68C78.4669 42.776 78.4349 42.864 78.3709 42.944L66.5149 58.544C66.4029 58.688 66.2909 58.8 66.1789 58.88C66.0829 58.96 65.9229 59 65.6989 59H64.2109ZM76.0189 59.12C74.9309 59.12 74.0669 58.832 73.4269 58.256C72.8029 57.68 72.4589 56.912 72.3949 55.952C72.3629 55.536 72.3469 55.168 72.3469 54.848C72.3629 54.528 72.3789 54.144 72.3949 53.696C72.4429 52.736 72.7709 51.96 73.3789 51.368C74.0029 50.776 74.8829 50.48 76.0189 50.48C77.1549 50.48 78.0269 50.776 78.6349 51.368C79.2589 51.96 79.5949 52.736 79.6429 53.696C79.6749 54.144 79.6909 54.528 79.6909 54.848C79.6909 55.168 79.6749 55.536 79.6429 55.952C79.5949 56.912 79.2429 57.68 78.5869 58.256C77.9469 58.832 77.0909 59.12 76.0189 59.12ZM76.0189 57.152C76.3229 57.152 76.5629 57.088 76.7389 56.96C76.9149 56.832 77.0429 56.664 77.1229 56.456C77.2189 56.248 77.2749 56.032 77.2909 55.808C77.3229 55.44 77.3389 55.112 77.3389 54.824C77.3389 54.52 77.3229 54.184 77.2909 53.816C77.2749 53.48 77.1709 53.176 76.9789 52.904C76.7869 52.632 76.4669 52.496 76.0189 52.496C75.5709 52.496 75.2509 52.632 75.0589 52.904C74.8829 53.176 74.7789 53.48 74.7469 53.816C74.7309 54.184 74.7229 54.52 74.7229 54.824C74.7229 55.112 74.7309 55.44 74.7469 55.808C74.7789 56.032 74.8269 56.248 74.8909 56.456C74.9709 56.664 75.0989 56.832 75.2749 56.96C75.4669 57.088 75.7149 57.152 76.0189 57.152ZM66.1549 50.672C65.0669 50.672 64.2029 50.392 63.5629 49.832C62.9389 49.256 62.5949 48.488 62.5309 47.528C62.4989 47.112 62.4829 46.752 62.4829 46.448C62.4989 46.128 62.5149 45.744 62.5309 45.296C62.5789 44.32 62.9069 43.544 63.5149 42.968C64.1389 42.376 65.0189 42.08 66.1549 42.08C67.3069 42.08 68.1869 42.376 68.7949 42.968C69.4029 43.544 69.7309 44.32 69.7789 45.296C69.8109 45.744 69.8269 46.128 69.8269 46.448C69.8269 46.752 69.8109 47.112 69.7789 47.528C69.7309 48.488 69.3869 49.256 68.7469 49.832C68.1069 50.392 67.2429 50.672 66.1549 50.672ZM66.1549 48.728C66.4589 48.728 66.6989 48.664 66.8749 48.536C67.0509 48.408 67.1789 48.24 67.2589 48.032C67.3549 47.824 67.4109 47.616 67.4269 47.408C67.4589 47.024 67.4749 46.688 67.4749 46.4C67.4749 46.096 67.4589 45.768 67.4269 45.416C67.4109 45.08 67.3069 44.776 67.1149 44.504C66.9229 44.216 66.6029 44.072 66.1549 44.072C65.7069 44.072 65.3869 44.216 65.1949 44.504C65.0189 44.776 64.9149 45.08 64.8829 45.416C64.8669 45.768 64.8589 46.096 64.8589 46.4C64.8589 46.688 64.8669 47.024 64.8829 47.408C64.9149 47.616 64.9709 47.824 65.0509 48.032C65.1309 48.24 65.2589 48.408 65.4349 48.536C65.6109 48.664 65.8509 48.728 66.1549 48.728Z" fill="black"/>
<path d="M100 50C100 77.6142 77.6142 100 50 100C22.3858 100 0 77.6142 0 50C0 22.3858 22.3858 0 50 0C77.6142 0 100 22.3858 100 50ZM10 50C10 72.0914 27.9086 90 50 90C72.0914 90 90 72.0914 90 50C90 27.9086 72.0914 10 50 10C27.9086 10 10 27.9086 10 50Z" fill="#DEE2E6"/>
<path d="M100 50C100 77.6142 77.6142 100 50 100C22.3858 100 0 77.6142 0 50C0 22.3858 22.3858 0 50 0C77.6142 0 100 22.3858 100 50ZM10 50C10 72.0914 27.9086 90 50 90C72.0914 90 90 72.0914 90 50C90 27.9086 72.0914 10 50 10C27.9086 10 10 27.9086 10 50Z" fill="#0956AF"/>
</svg>
