<svg width="100" height="100" viewBox="0 0 100 100" fill="none" xmlns="http://www.w3.org/2000/svg">
<path d="M32.632 59.24C31.448 59.24 30.432 59.096 29.584 58.808C28.736 58.52 28.04 58.152 27.496 57.704C26.952 57.256 26.544 56.768 26.272 56.24C26 55.696 25.856 55.176 25.84 54.68C25.84 54.536 25.888 54.416 25.984 54.32C26.08 54.224 26.2 54.176 26.344 54.176H28.984C29.16 54.176 29.304 54.216 29.416 54.296C29.528 54.36 29.632 54.48 29.728 54.656C29.856 55.024 30.064 55.32 30.352 55.544C30.64 55.768 30.976 55.928 31.36 56.024C31.76 56.104 32.184 56.144 32.632 56.144C33.528 56.144 34.232 55.936 34.744 55.52C35.256 55.104 35.512 54.52 35.512 53.768C35.512 53 35.272 52.448 34.792 52.112C34.312 51.776 33.632 51.608 32.752 51.608H30.184C30.024 51.608 29.888 51.552 29.776 51.44C29.664 51.328 29.608 51.192 29.608 51.032V49.856C29.608 49.664 29.64 49.504 29.704 49.376C29.784 49.248 29.864 49.152 29.944 49.088L34.072 45.296H27.304C27.128 45.296 26.984 45.24 26.872 45.128C26.76 45.016 26.704 44.88 26.704 44.72V42.8C26.704 42.624 26.76 42.48 26.872 42.368C26.984 42.256 27.128 42.2 27.304 42.2H37.96C38.136 42.2 38.28 42.256 38.392 42.368C38.504 42.48 38.56 42.624 38.56 42.8V44.528C38.56 44.704 38.528 44.856 38.464 44.984C38.4 45.096 38.32 45.184 38.224 45.248L34.312 49.112L34.552 49.136C35.496 49.232 36.336 49.464 37.072 49.832C37.808 50.2 38.384 50.728 38.8 51.416C39.232 52.088 39.448 52.944 39.448 53.984C39.448 55.072 39.152 56.008 38.56 56.792C37.968 57.576 37.16 58.184 36.136 58.616C35.112 59.032 33.944 59.24 32.632 59.24ZM48.0773 59.24C46.8933 59.24 45.8773 59.096 45.0293 58.808C44.1813 58.52 43.4853 58.152 42.9413 57.704C42.3973 57.256 41.9893 56.768 41.7173 56.24C41.4453 55.696 41.3013 55.176 41.2853 54.68C41.2853 54.536 41.3333 54.416 41.4293 54.32C41.5253 54.224 41.6453 54.176 41.7893 54.176H44.4293C44.6053 54.176 44.7493 54.216 44.8613 54.296C44.9733 54.36 45.0773 54.48 45.1733 54.656C45.3013 55.024 45.5093 55.32 45.7973 55.544C46.0853 55.768 46.4213 55.928 46.8053 56.024C47.2053 56.104 47.6293 56.144 48.0773 56.144C48.9733 56.144 49.6773 55.936 50.1893 55.52C50.7013 55.104 50.9573 54.52 50.9573 53.768C50.9573 53 50.7173 52.448 50.2373 52.112C49.7573 51.776 49.0773 51.608 48.1973 51.608H45.6293C45.4693 51.608 45.3333 51.552 45.2213 51.44C45.1093 51.328 45.0533 51.192 45.0533 51.032V49.856C45.0533 49.664 45.0853 49.504 45.1493 49.376C45.2293 49.248 45.3093 49.152 45.3893 49.088L49.5173 45.296H42.7493C42.5733 45.296 42.4293 45.24 42.3173 45.128C42.2053 45.016 42.1493 44.88 42.1493 44.72V42.8C42.1493 42.624 42.2053 42.48 42.3173 42.368C42.4293 42.256 42.5733 42.2 42.7493 42.2H53.4053C53.5813 42.2 53.7253 42.256 53.8373 42.368C53.9493 42.48 54.0053 42.624 54.0053 42.8V44.528C54.0053 44.704 53.9733 44.856 53.9093 44.984C53.8453 45.096 53.7653 45.184 53.6693 45.248L49.7573 49.112L49.9973 49.136C50.9413 49.232 51.7813 49.464 52.5173 49.832C53.2533 50.2 53.8293 50.728 54.2453 51.416C54.6773 52.088 54.8933 52.944 54.8933 53.984C54.8933 55.072 54.5973 56.008 54.0053 56.792C53.4133 57.576 52.6053 58.184 51.5813 58.616C50.5573 59.032 49.3893 59.24 48.0773 59.24ZM58.5546 59C58.2026 59 58.0266 58.84 58.0266 58.52C58.0266 58.424 58.0586 58.336 58.1226 58.256L69.9786 42.656C70.0906 42.512 70.2026 42.4 70.3146 42.32C70.4266 42.24 70.5866 42.2 70.7946 42.2H72.2826C72.6346 42.2 72.8106 42.36 72.8106 42.68C72.8106 42.776 72.7786 42.864 72.7146 42.944L60.8586 58.544C60.7466 58.688 60.6346 58.8 60.5226 58.88C60.4266 58.96 60.2666 59 60.0426 59H58.5546ZM70.3626 59.12C69.2746 59.12 68.4106 58.832 67.7706 58.256C67.1466 57.68 66.8026 56.912 66.7386 55.952C66.7066 55.536 66.6906 55.168 66.6906 54.848C66.7066 54.528 66.7226 54.144 66.7386 53.696C66.7866 52.736 67.1146 51.96 67.7226 51.368C68.3466 50.776 69.2266 50.48 70.3626 50.48C71.4986 50.48 72.3706 50.776 72.9786 51.368C73.6026 51.96 73.9386 52.736 73.9866 53.696C74.0186 54.144 74.0346 54.528 74.0346 54.848C74.0346 55.168 74.0186 55.536 73.9866 55.952C73.9386 56.912 73.5866 57.68 72.9306 58.256C72.2906 58.832 71.4346 59.12 70.3626 59.12ZM70.3626 57.152C70.6666 57.152 70.9066 57.088 71.0826 56.96C71.2586 56.832 71.3866 56.664 71.4666 56.456C71.5626 56.248 71.6186 56.032 71.6346 55.808C71.6666 55.44 71.6826 55.112 71.6826 54.824C71.6826 54.52 71.6666 54.184 71.6346 53.816C71.6186 53.48 71.5146 53.176 71.3226 52.904C71.1306 52.632 70.8106 52.496 70.3626 52.496C69.9146 52.496 69.5946 52.632 69.4026 52.904C69.2266 53.176 69.1226 53.48 69.0906 53.816C69.0746 54.184 69.0666 54.52 69.0666 54.824C69.0666 55.112 69.0746 55.44 69.0906 55.808C69.1226 56.032 69.1706 56.248 69.2346 56.456C69.3146 56.664 69.4426 56.832 69.6186 56.96C69.8106 57.088 70.0586 57.152 70.3626 57.152ZM60.4986 50.672C59.4106 50.672 58.5466 50.392 57.9066 49.832C57.2826 49.256 56.9386 48.488 56.8746 47.528C56.8426 47.112 56.8266 46.752 56.8266 46.448C56.8426 46.128 56.8586 45.744 56.8746 45.296C56.9226 44.32 57.2506 43.544 57.8586 42.968C58.4826 42.376 59.3626 42.08 60.4986 42.08C61.6506 42.08 62.5306 42.376 63.1386 42.968C63.7466 43.544 64.0746 44.32 64.1226 45.296C64.1546 45.744 64.1706 46.128 64.1706 46.448C64.1706 46.752 64.1546 47.112 64.1226 47.528C64.0746 48.488 63.7306 49.256 63.0906 49.832C62.4506 50.392 61.5866 50.672 60.4986 50.672ZM60.4986 48.728C60.8026 48.728 61.0426 48.664 61.2186 48.536C61.3946 48.408 61.5226 48.24 61.6026 48.032C61.6986 47.824 61.7546 47.616 61.7706 47.408C61.8026 47.024 61.8186 46.688 61.8186 46.4C61.8186 46.096 61.8026 45.768 61.7706 45.416C61.7546 45.08 61.6506 44.776 61.4586 44.504C61.2666 44.216 60.9466 44.072 60.4986 44.072C60.0506 44.072 59.7306 44.216 59.5386 44.504C59.3626 44.776 59.2586 45.08 59.2266 45.416C59.2106 45.768 59.2026 46.096 59.2026 46.4C59.2026 46.688 59.2106 47.024 59.2266 47.408C59.2586 47.616 59.3146 47.824 59.3946 48.032C59.4746 48.24 59.6026 48.408 59.7786 48.536C59.9546 48.664 60.1946 48.728 60.4986 48.728Z" fill="black"/>
<path d="M100 50C100 77.6142 77.6142 100 50 100C22.3858 100 0 77.6142 0 50C0 22.3858 22.3858 0 50 0C77.6142 0 100 22.3858 100 50ZM10 50C10 72.0914 27.9086 90 50 90C72.0914 90 90 72.0914 90 50C90 27.9086 72.0914 10 50 10C27.9086 10 10 27.9086 10 50Z" fill="#DEE2E6"/>
<path d="M50 0C41.3119 -1.03604e-07 32.7738 2.26384 25.2271 6.56842C17.6803 10.873 11.3855 17.0697 6.9629 24.5479C2.54031 32.0261 0.142636 40.5276 0.00616845 49.2146C-0.130299 57.9016 1.99915 66.4743 6.18466 74.0877L14.9477 69.2701C11.5993 63.1794 9.89576 56.3213 10.0049 49.3717C10.1141 42.4221 12.0323 35.6209 15.5703 29.6383C19.1084 23.6558 24.1443 18.6984 30.1817 15.2547C36.219 11.8111 43.0495 10 50 10V0Z" fill="#EF233C"/>
</svg>
