<svg width="100" height="100" viewBox="0 0 100 100" fill="none" xmlns="http://www.w3.org/2000/svg">
<path d="M34.408 59C34.248 59 34.112 58.944 34 58.832C33.888 58.72 33.832 58.576 33.832 58.4V55.52H26.272C26.112 55.52 25.976 55.464 25.864 55.352C25.752 55.24 25.696 55.096 25.696 54.92V52.976C25.696 52.864 25.72 52.744 25.768 52.616C25.816 52.488 25.88 52.368 25.96 52.256L32.992 42.608C33.2 42.336 33.496 42.2 33.88 42.2H36.928C37.088 42.2 37.224 42.256 37.336 42.368C37.448 42.48 37.504 42.624 37.504 42.8V52.328H39.64C39.832 52.328 39.976 52.384 40.072 52.496C40.184 52.608 40.24 52.744 40.24 52.904V54.92C40.24 55.096 40.184 55.24 40.072 55.352C39.96 55.464 39.824 55.52 39.664 55.52H37.504V58.4C37.504 58.576 37.448 58.72 37.336 58.832C37.224 58.944 37.088 59 36.928 59H34.408ZM29.416 52.448H33.904V46.136L29.416 52.448ZM48.5198 59.264C47.0798 59.264 45.8718 59.032 44.8958 58.568C43.9198 58.104 43.1758 57.496 42.6638 56.744C42.1678 55.992 41.9038 55.192 41.8718 54.344C41.8718 54.2 41.9198 54.08 42.0158 53.984C42.1118 53.888 42.2318 53.84 42.3758 53.84H45.0878C45.2798 53.84 45.4318 53.888 45.5438 53.984C45.6718 54.064 45.7678 54.176 45.8318 54.32C45.9918 54.752 46.1998 55.104 46.4558 55.376C46.7278 55.648 47.0398 55.848 47.3918 55.976C47.7438 56.104 48.1198 56.168 48.5198 56.168C49.0318 56.168 49.5038 56.064 49.9358 55.856C50.3678 55.632 50.7118 55.312 50.9678 54.896C51.2238 54.48 51.3518 53.968 51.3518 53.36C51.3518 52.832 51.2318 52.368 50.9918 51.968C50.7518 51.568 50.4158 51.256 49.9838 51.032C49.5518 50.808 49.0638 50.696 48.5198 50.696C48.1038 50.696 47.7598 50.744 47.4878 50.84C47.2318 50.936 47.0158 51.056 46.8398 51.2C46.6638 51.328 46.5038 51.448 46.3598 51.56C46.2158 51.656 46.0558 51.704 45.8798 51.704H43.2158C43.0718 51.704 42.9438 51.656 42.8318 51.56C42.7358 51.448 42.6878 51.32 42.6878 51.176L43.5278 42.896C43.5598 42.672 43.6398 42.504 43.7678 42.392C43.9118 42.264 44.0798 42.2 44.2718 42.2H53.5838C53.7598 42.2 53.9038 42.256 54.0158 42.368C54.1278 42.48 54.1838 42.624 54.1838 42.8V44.72C54.1838 44.88 54.1278 45.016 54.0158 45.128C53.9038 45.24 53.7598 45.296 53.5838 45.296H46.6478L46.2878 48.824C46.6078 48.616 46.9998 48.432 47.4638 48.272C47.9438 48.096 48.6078 48.008 49.4558 48.008C50.2238 48.008 50.9518 48.136 51.6398 48.392C52.3438 48.632 52.9678 48.992 53.5118 49.472C54.0558 49.952 54.4798 50.528 54.7838 51.2C55.1038 51.856 55.2638 52.608 55.2638 53.456C55.2638 54.608 54.9918 55.624 54.4478 56.504C53.9038 57.368 53.1278 58.048 52.1198 58.544C51.1118 59.024 49.9118 59.264 48.5198 59.264ZM58.8359 59C58.4839 59 58.3079 58.84 58.3079 58.52C58.3079 58.424 58.3399 58.336 58.4039 58.256L70.2599 42.656C70.3719 42.512 70.4839 42.4 70.5959 42.32C70.7079 42.24 70.8679 42.2 71.0759 42.2H72.5639C72.9159 42.2 73.0919 42.36 73.0919 42.68C73.0919 42.776 73.0599 42.864 72.9959 42.944L61.1399 58.544C61.0279 58.688 60.9159 58.8 60.8039 58.88C60.7079 58.96 60.5479 59 60.3239 59H58.8359ZM70.6439 59.12C69.5559 59.12 68.6919 58.832 68.0519 58.256C67.4279 57.68 67.0839 56.912 67.0199 55.952C66.9879 55.536 66.9719 55.168 66.9719 54.848C66.9879 54.528 67.0039 54.144 67.0199 53.696C67.0679 52.736 67.3959 51.96 68.0039 51.368C68.6279 50.776 69.5079 50.48 70.6439 50.48C71.7799 50.48 72.6519 50.776 73.2599 51.368C73.8839 51.96 74.2199 52.736 74.2679 53.696C74.2999 54.144 74.3159 54.528 74.3159 54.848C74.3159 55.168 74.2999 55.536 74.2679 55.952C74.2199 56.912 73.8679 57.68 73.2119 58.256C72.5719 58.832 71.7159 59.12 70.6439 59.12ZM70.6439 57.152C70.9479 57.152 71.1879 57.088 71.3639 56.96C71.5399 56.832 71.6679 56.664 71.7479 56.456C71.8439 56.248 71.8999 56.032 71.9159 55.808C71.9479 55.44 71.9639 55.112 71.9639 54.824C71.9639 54.52 71.9479 54.184 71.9159 53.816C71.8999 53.48 71.7959 53.176 71.6039 52.904C71.4119 52.632 71.0919 52.496 70.6439 52.496C70.1959 52.496 69.8759 52.632 69.6839 52.904C69.5079 53.176 69.4039 53.48 69.3719 53.816C69.3559 54.184 69.3479 54.52 69.3479 54.824C69.3479 55.112 69.3559 55.44 69.3719 55.808C69.4039 56.032 69.4519 56.248 69.5159 56.456C69.5959 56.664 69.7239 56.832 69.8999 56.96C70.0919 57.088 70.3399 57.152 70.6439 57.152ZM60.7799 50.672C59.6919 50.672 58.8279 50.392 58.1879 49.832C57.5639 49.256 57.2199 48.488 57.1559 47.528C57.1239 47.112 57.1079 46.752 57.1079 46.448C57.1239 46.128 57.1399 45.744 57.1559 45.296C57.2039 44.32 57.5319 43.544 58.1399 42.968C58.7639 42.376 59.6439 42.08 60.7799 42.08C61.9319 42.08 62.8119 42.376 63.4199 42.968C64.0279 43.544 64.3559 44.32 64.4039 45.296C64.4359 45.744 64.4519 46.128 64.4519 46.448C64.4519 46.752 64.4359 47.112 64.4039 47.528C64.3559 48.488 64.0119 49.256 63.3719 49.832C62.7319 50.392 61.8679 50.672 60.7799 50.672ZM60.7799 48.728C61.0839 48.728 61.3239 48.664 61.4999 48.536C61.6759 48.408 61.8039 48.24 61.8839 48.032C61.9799 47.824 62.0359 47.616 62.0519 47.408C62.0839 47.024 62.0999 46.688 62.0999 46.4C62.0999 46.096 62.0839 45.768 62.0519 45.416C62.0359 45.08 61.9319 44.776 61.7399 44.504C61.5479 44.216 61.2279 44.072 60.7799 44.072C60.3319 44.072 60.0119 44.216 59.8199 44.504C59.6439 44.776 59.5399 45.08 59.5079 45.416C59.4919 45.768 59.4839 46.096 59.4839 46.4C59.4839 46.688 59.4919 47.024 59.5079 47.408C59.5399 47.616 59.5959 47.824 59.6759 48.032C59.7559 48.24 59.8839 48.408 60.0599 48.536C60.2359 48.664 60.4759 48.728 60.7799 48.728Z" fill="black"/>
<path d="M100 50C100 77.6142 77.6142 100 50 100C22.3858 100 0 77.6142 0 50C0 22.3858 22.3858 0 50 0C77.6142 0 100 22.3858 100 50ZM10 50C10 72.0914 27.9086 90 50 90C72.0914 90 90 72.0914 90 50C90 27.9086 72.0914 10 50 10C27.9086 10 10 27.9086 10 50Z" fill="#DEE2E6"/>
<path d="M50 0C38.0948 -1.41968e-07 26.5804 4.24792 17.5276 11.9797C8.47485 19.7115 2.47796 30.4197 0.615583 42.1783C-1.24679 53.9369 1.14756 65.9741 7.36799 76.1249C13.5884 86.2757 23.2267 93.8739 34.5491 97.5528L37.6393 88.0423C28.5813 85.0991 20.8707 79.0206 15.8944 70.8999C10.9181 62.7793 9.00257 53.1495 10.4925 43.7426C11.9824 34.3358 16.7799 25.7692 24.0221 19.5838C31.2643 13.3983 40.4759 10 50 10V0Z" fill="#F8B324"/>
</svg>
