<svg width="100" height="100" viewBox="0 0 100 100" fill="none" xmlns="http://www.w3.org/2000/svg">
<path d="M29.432 58C29.288 58 29.168 57.952 29.072 57.856C28.976 57.744 28.928 57.616 28.928 57.472C28.928 57.408 28.944 57.336 28.976 57.256L34.64 44.416H27.272C27.112 44.416 26.968 44.36 26.84 44.248C26.728 44.136 26.672 44 26.672 43.84V41.8C26.672 41.624 26.728 41.48 26.84 41.368C26.968 41.256 27.112 41.2 27.272 41.2H38.144C38.336 41.2 38.48 41.256 38.576 41.368C38.688 41.48 38.744 41.624 38.744 41.8V43.6C38.744 43.84 38.72 44.04 38.672 44.2C38.64 44.344 38.584 44.496 38.504 44.656L32.864 57.424C32.816 57.52 32.728 57.64 32.6 57.784C32.488 57.928 32.304 58 32.048 58H29.432ZM46.8948 58.264C45.4548 58.264 44.2468 58.032 43.2708 57.568C42.2948 57.104 41.5508 56.496 41.0388 55.744C40.5428 54.992 40.2788 54.192 40.2468 53.344C40.2468 53.2 40.2948 53.08 40.3908 52.984C40.4868 52.888 40.6068 52.84 40.7508 52.84H43.4628C43.6548 52.84 43.8068 52.888 43.9188 52.984C44.0468 53.064 44.1428 53.176 44.2068 53.32C44.3668 53.752 44.5748 54.104 44.8308 54.376C45.1028 54.648 45.4148 54.848 45.7668 54.976C46.1188 55.104 46.4948 55.168 46.8948 55.168C47.4068 55.168 47.8788 55.064 48.3108 54.856C48.7428 54.632 49.0868 54.312 49.3428 53.896C49.5988 53.48 49.7268 52.968 49.7268 52.36C49.7268 51.832 49.6068 51.368 49.3668 50.968C49.1268 50.568 48.7908 50.256 48.3588 50.032C47.9268 49.808 47.4388 49.696 46.8948 49.696C46.4788 49.696 46.1348 49.744 45.8628 49.84C45.6068 49.936 45.3908 50.056 45.2148 50.2C45.0388 50.328 44.8788 50.448 44.7348 50.56C44.5908 50.656 44.4308 50.704 44.2548 50.704H41.5908C41.4468 50.704 41.3188 50.656 41.2068 50.56C41.1108 50.448 41.0628 50.32 41.0628 50.176L41.9028 41.896C41.9348 41.672 42.0148 41.504 42.1428 41.392C42.2868 41.264 42.4548 41.2 42.6468 41.2H51.9588C52.1348 41.2 52.2788 41.256 52.3908 41.368C52.5028 41.48 52.5588 41.624 52.5588 41.8V43.72C52.5588 43.88 52.5028 44.016 52.3908 44.128C52.2788 44.24 52.1348 44.296 51.9588 44.296H45.0228L44.6628 47.824C44.9828 47.616 45.3748 47.432 45.8388 47.272C46.3188 47.096 46.9828 47.008 47.8308 47.008C48.5988 47.008 49.3268 47.136 50.0148 47.392C50.7188 47.632 51.3428 47.992 51.8868 48.472C52.4308 48.952 52.8548 49.528 53.1588 50.2C53.4788 50.856 53.6388 51.608 53.6388 52.456C53.6388 53.608 53.3668 54.624 52.8228 55.504C52.2788 56.368 51.5028 57.048 50.4948 57.544C49.4868 58.024 48.2868 58.264 46.8948 58.264ZM57.2109 58C56.8589 58 56.6829 57.84 56.6829 57.52C56.6829 57.424 56.7149 57.336 56.7789 57.256L68.6349 41.656C68.7469 41.512 68.8589 41.4 68.9709 41.32C69.0829 41.24 69.2429 41.2 69.4509 41.2H70.9389C71.2909 41.2 71.4669 41.36 71.4669 41.68C71.4669 41.776 71.4349 41.864 71.3709 41.944L59.5149 57.544C59.4029 57.688 59.2909 57.8 59.1789 57.88C59.0829 57.96 58.9229 58 58.6989 58H57.2109ZM69.0189 58.12C67.9309 58.12 67.0669 57.832 66.4269 57.256C65.8029 56.68 65.4589 55.912 65.3949 54.952C65.3629 54.536 65.3469 54.168 65.3469 53.848C65.3629 53.528 65.3789 53.144 65.3949 52.696C65.4429 51.736 65.7709 50.96 66.3789 50.368C67.0029 49.776 67.8829 49.48 69.0189 49.48C70.1549 49.48 71.0269 49.776 71.6349 50.368C72.2589 50.96 72.5949 51.736 72.6429 52.696C72.6749 53.144 72.6909 53.528 72.6909 53.848C72.6909 54.168 72.6749 54.536 72.6429 54.952C72.5949 55.912 72.2429 56.68 71.5869 57.256C70.9469 57.832 70.0909 58.12 69.0189 58.12ZM69.0189 56.152C69.3229 56.152 69.5629 56.088 69.7389 55.96C69.9149 55.832 70.0429 55.664 70.1229 55.456C70.2189 55.248 70.2749 55.032 70.2909 54.808C70.3229 54.44 70.3389 54.112 70.3389 53.824C70.3389 53.52 70.3229 53.184 70.2909 52.816C70.2749 52.48 70.1709 52.176 69.9789 51.904C69.7869 51.632 69.4669 51.496 69.0189 51.496C68.5709 51.496 68.2509 51.632 68.0589 51.904C67.8829 52.176 67.7789 52.48 67.7469 52.816C67.7309 53.184 67.7229 53.52 67.7229 53.824C67.7229 54.112 67.7309 54.44 67.7469 54.808C67.7789 55.032 67.8269 55.248 67.8909 55.456C67.9709 55.664 68.0989 55.832 68.2749 55.96C68.4669 56.088 68.7149 56.152 69.0189 56.152ZM59.1549 49.672C58.0669 49.672 57.2029 49.392 56.5629 48.832C55.9389 48.256 55.5949 47.488 55.5309 46.528C55.4989 46.112 55.4829 45.752 55.4829 45.448C55.4989 45.128 55.5149 44.744 55.5309 44.296C55.5789 43.32 55.9069 42.544 56.5149 41.968C57.1389 41.376 58.0189 41.08 59.1549 41.08C60.3069 41.08 61.1869 41.376 61.7949 41.968C62.4029 42.544 62.7309 43.32 62.7789 44.296C62.8109 44.744 62.8269 45.128 62.8269 45.448C62.8269 45.752 62.8109 46.112 62.7789 46.528C62.7309 47.488 62.3869 48.256 61.7469 48.832C61.1069 49.392 60.2429 49.672 59.1549 49.672ZM59.1549 47.728C59.4589 47.728 59.6989 47.664 59.8749 47.536C60.0509 47.408 60.1789 47.24 60.2589 47.032C60.3549 46.824 60.4109 46.616 60.4269 46.408C60.4589 46.024 60.4749 45.688 60.4749 45.4C60.4749 45.096 60.4589 44.768 60.4269 44.416C60.4109 44.08 60.3069 43.776 60.1149 43.504C59.9229 43.216 59.6029 43.072 59.1549 43.072C58.7069 43.072 58.3869 43.216 58.1949 43.504C58.0189 43.776 57.9149 44.08 57.8829 44.416C57.8669 44.768 57.8589 45.096 57.8589 45.4C57.8589 45.688 57.8669 46.024 57.8829 46.408C57.9149 46.616 57.9709 46.824 58.0509 47.032C58.1309 47.24 58.2589 47.408 58.4349 47.536C58.6109 47.664 58.8509 47.728 59.1549 47.728Z" fill="black"/>
<path d="M100 50C100 77.6142 77.6142 100 50 100C22.3858 100 0 77.6142 0 50C0 22.3858 22.3858 0 50 0C77.6142 0 100 22.3858 100 50ZM10 50C10 72.0914 27.9086 90 50 90C72.0914 90 90 72.0914 90 50C90 27.9086 72.0914 10 50 10C27.9086 10 10 27.9086 10 50Z" fill="#DEE2E6"/>
<path d="M50 0C40.1109 -1.17926e-07 30.4439 2.93245 22.2215 8.42652C13.999 13.9206 7.59041 21.7295 3.80602 30.8658C0.0216418 40.0021 -0.968525 50.0555 0.960736 59.7545C2.89 69.4536 7.65204 78.3627 14.6447 85.3553C21.6373 92.348 30.5464 97.11 40.2455 99.0393C49.9445 100.969 59.9979 99.9784 69.1342 96.194C78.2705 92.4096 86.0794 86.001 91.5735 77.7785C97.0676 69.5561 100 59.8891 100 50H90C90 57.9113 87.654 65.6448 83.2588 72.2228C78.8635 78.8008 72.6164 83.9277 65.3073 86.9552C57.9983 89.9827 49.9556 90.7748 42.1964 89.2314C34.4371 87.688 27.3098 83.8784 21.7157 78.2843C16.1216 72.6902 12.312 65.5629 10.7686 57.8036C9.22518 50.0444 10.0173 42.0017 13.0448 34.6927C16.0723 27.3836 21.1992 21.1365 27.7772 16.7412C34.3552 12.346 42.0887 10 50 10V0Z" fill="#28A264"/>
</svg>
