<svg width="100" height="100" viewBox="0 0 100 100" fill="none" xmlns="http://www.w3.org/2000/svg">
<path d="M32.992 58.24C31.872 58.24 30.88 58.112 30.016 57.856C29.168 57.584 28.456 57.216 27.88 56.752C27.304 56.272 26.872 55.72 26.584 55.096C26.296 54.456 26.152 53.76 26.152 53.008C26.152 52.096 26.376 51.304 26.824 50.632C27.272 49.96 27.84 49.44 28.528 49.072C27.968 48.704 27.528 48.24 27.208 47.68C26.904 47.104 26.752 46.44 26.752 45.688C26.752 44.776 26.984 43.968 27.448 43.264C27.912 42.56 28.6 42 29.512 41.584C30.44 41.168 31.6 40.96 32.992 40.96C34.368 40.96 35.512 41.168 36.424 41.584C37.336 41.984 38.024 42.536 38.488 43.24C38.952 43.944 39.184 44.752 39.184 45.664C39.184 46.416 39.032 47.08 38.728 47.656C38.424 48.232 37.992 48.704 37.432 49.072C38.168 49.424 38.752 49.944 39.184 50.632C39.616 51.32 39.832 52.12 39.832 53.032C39.832 54.024 39.576 54.912 39.064 55.696C38.552 56.48 37.784 57.104 36.76 57.568C35.736 58.016 34.48 58.24 32.992 58.24ZM32.992 55.48C33.552 55.48 34.064 55.384 34.528 55.192C34.992 54.984 35.352 54.696 35.608 54.328C35.88 53.96 36.016 53.528 36.016 53.032C36.016 52.52 35.88 52.088 35.608 51.736C35.352 51.368 34.992 51.088 34.528 50.896C34.064 50.688 33.552 50.584 32.992 50.584C32.416 50.584 31.896 50.688 31.432 50.896C30.984 51.088 30.624 51.368 30.352 51.736C30.08 52.088 29.944 52.52 29.944 53.032C29.944 53.528 30.08 53.96 30.352 54.328C30.624 54.696 30.984 54.984 31.432 55.192C31.896 55.384 32.416 55.48 32.992 55.48ZM32.992 47.968C33.488 47.952 33.936 47.856 34.336 47.68C34.736 47.504 35.056 47.264 35.296 46.96C35.536 46.64 35.656 46.272 35.656 45.856C35.656 45.424 35.536 45.056 35.296 44.752C35.072 44.432 34.76 44.184 34.36 44.008C33.96 43.832 33.504 43.744 32.992 43.744C32.48 43.744 32.016 43.832 31.6 44.008C31.2 44.184 30.888 44.432 30.664 44.752C30.44 45.056 30.328 45.424 30.328 45.856C30.328 46.288 30.44 46.664 30.664 46.984C30.888 47.288 31.2 47.528 31.6 47.704C32.016 47.88 32.48 47.968 32.992 47.968ZM48.4964 58.264C47.0564 58.264 45.8484 58.032 44.8724 57.568C43.8964 57.104 43.1524 56.496 42.6404 55.744C42.1444 54.992 41.8804 54.192 41.8484 53.344C41.8484 53.2 41.8964 53.08 41.9924 52.984C42.0884 52.888 42.2084 52.84 42.3524 52.84H45.0644C45.2564 52.84 45.4084 52.888 45.5204 52.984C45.6484 53.064 45.7444 53.176 45.8084 53.32C45.9684 53.752 46.1764 54.104 46.4324 54.376C46.7044 54.648 47.0164 54.848 47.3684 54.976C47.7204 55.104 48.0964 55.168 48.4964 55.168C49.0084 55.168 49.4804 55.064 49.9124 54.856C50.3444 54.632 50.6884 54.312 50.9444 53.896C51.2004 53.48 51.3284 52.968 51.3284 52.36C51.3284 51.832 51.2084 51.368 50.9684 50.968C50.7284 50.568 50.3924 50.256 49.9604 50.032C49.5284 49.808 49.0404 49.696 48.4964 49.696C48.0804 49.696 47.7364 49.744 47.4644 49.84C47.2084 49.936 46.9924 50.056 46.8164 50.2C46.6404 50.328 46.4804 50.448 46.3364 50.56C46.1924 50.656 46.0324 50.704 45.8564 50.704H43.1924C43.0484 50.704 42.9204 50.656 42.8084 50.56C42.7124 50.448 42.6644 50.32 42.6644 50.176L43.5044 41.896C43.5364 41.672 43.6164 41.504 43.7444 41.392C43.8884 41.264 44.0564 41.2 44.2484 41.2H53.5604C53.7364 41.2 53.8804 41.256 53.9924 41.368C54.1044 41.48 54.1604 41.624 54.1604 41.8V43.72C54.1604 43.88 54.1044 44.016 53.9924 44.128C53.8804 44.24 53.7364 44.296 53.5604 44.296H46.6244L46.2644 47.824C46.5844 47.616 46.9764 47.432 47.4404 47.272C47.9204 47.096 48.5844 47.008 49.4324 47.008C50.2004 47.008 50.9284 47.136 51.6164 47.392C52.3204 47.632 52.9444 47.992 53.4884 48.472C54.0324 48.952 54.4564 49.528 54.7604 50.2C55.0804 50.856 55.2404 51.608 55.2404 52.456C55.2404 53.608 54.9684 54.624 54.4244 55.504C53.8804 56.368 53.1044 57.048 52.0964 57.544C51.0884 58.024 49.8884 58.264 48.4964 58.264ZM58.8124 58C58.4604 58 58.2844 57.84 58.2844 57.52C58.2844 57.424 58.3164 57.336 58.3804 57.256L70.2364 41.656C70.3484 41.512 70.4604 41.4 70.5724 41.32C70.6844 41.24 70.8444 41.2 71.0524 41.2H72.5404C72.8924 41.2 73.0684 41.36 73.0684 41.68C73.0684 41.776 73.0364 41.864 72.9724 41.944L61.1164 57.544C61.0044 57.688 60.8924 57.8 60.7804 57.88C60.6844 57.96 60.5244 58 60.3004 58H58.8124ZM70.6204 58.12C69.5324 58.12 68.6684 57.832 68.0284 57.256C67.4044 56.68 67.0604 55.912 66.9964 54.952C66.9644 54.536 66.9484 54.168 66.9484 53.848C66.9644 53.528 66.9804 53.144 66.9964 52.696C67.0444 51.736 67.3724 50.96 67.9804 50.368C68.6044 49.776 69.4844 49.48 70.6204 49.48C71.7564 49.48 72.6284 49.776 73.2364 50.368C73.8604 50.96 74.1964 51.736 74.2444 52.696C74.2764 53.144 74.2924 53.528 74.2924 53.848C74.2924 54.168 74.2764 54.536 74.2444 54.952C74.1964 55.912 73.8444 56.68 73.1884 57.256C72.5484 57.832 71.6924 58.12 70.6204 58.12ZM70.6204 56.152C70.9244 56.152 71.1644 56.088 71.3404 55.96C71.5164 55.832 71.6444 55.664 71.7244 55.456C71.8204 55.248 71.8764 55.032 71.8924 54.808C71.9244 54.44 71.9404 54.112 71.9404 53.824C71.9404 53.52 71.9244 53.184 71.8924 52.816C71.8764 52.48 71.7724 52.176 71.5804 51.904C71.3884 51.632 71.0684 51.496 70.6204 51.496C70.1724 51.496 69.8524 51.632 69.6604 51.904C69.4844 52.176 69.3804 52.48 69.3484 52.816C69.3324 53.184 69.3244 53.52 69.3244 53.824C69.3244 54.112 69.3324 54.44 69.3484 54.808C69.3804 55.032 69.4284 55.248 69.4924 55.456C69.5724 55.664 69.7004 55.832 69.8764 55.96C70.0684 56.088 70.3164 56.152 70.6204 56.152ZM60.7564 49.672C59.6684 49.672 58.8044 49.392 58.1644 48.832C57.5404 48.256 57.1964 47.488 57.1324 46.528C57.1004 46.112 57.0844 45.752 57.0844 45.448C57.1004 45.128 57.1164 44.744 57.1324 44.296C57.1804 43.32 57.5084 42.544 58.1164 41.968C58.7404 41.376 59.6204 41.08 60.7564 41.08C61.9084 41.08 62.7884 41.376 63.3964 41.968C64.0044 42.544 64.3324 43.32 64.3804 44.296C64.4124 44.744 64.4284 45.128 64.4284 45.448C64.4284 45.752 64.4124 46.112 64.3804 46.528C64.3324 47.488 63.9884 48.256 63.3484 48.832C62.7084 49.392 61.8444 49.672 60.7564 49.672ZM60.7564 47.728C61.0604 47.728 61.3004 47.664 61.4764 47.536C61.6524 47.408 61.7804 47.24 61.8604 47.032C61.9564 46.824 62.0124 46.616 62.0284 46.408C62.0604 46.024 62.0764 45.688 62.0764 45.4C62.0764 45.096 62.0604 44.768 62.0284 44.416C62.0124 44.08 61.9084 43.776 61.7164 43.504C61.5244 43.216 61.2044 43.072 60.7564 43.072C60.3084 43.072 59.9884 43.216 59.7964 43.504C59.6204 43.776 59.5164 44.08 59.4844 44.416C59.4684 44.768 59.4604 45.096 59.4604 45.4C59.4604 45.688 59.4684 46.024 59.4844 46.408C59.5164 46.616 59.5724 46.824 59.6524 47.032C59.7324 47.24 59.8604 47.408 60.0364 47.536C60.2124 47.664 60.4524 47.728 60.7564 47.728Z" fill="black"/>
<path d="M100 50C100 77.6142 77.6142 100 50 100C22.3858 100 0 77.6142 0 50C0 22.3858 22.3858 0 50 0C77.6142 0 100 22.3858 100 50ZM10 50C10 72.0914 27.9086 90 50 90C72.0914 90 90 72.0914 90 50C90 27.9086 72.0914 10 50 10C27.9086 10 10 27.9086 10 50Z" fill="#DEE2E6"/>
<path d="M50 0C38.7691 -1.33928e-07 27.8652 3.78114 19.0453 10.7342C10.2255 17.6872 4.00332 27.4071 1.3815 38.3277C-1.24031 49.2484 -0.109104 60.7337 4.59284 70.933C9.29478 81.1323 17.2936 89.4516 27.3005 94.5503C37.3073 99.6491 48.7394 101.23 59.7545 99.0393C70.7697 96.8482 80.7264 91.0125 88.0203 82.4724C95.3142 73.9323 99.5205 63.1853 99.9614 51.963C100.402 40.7407 97.0522 29.6968 90.4509 20.6107L82.3607 26.4886C87.6418 33.7574 90.3219 42.5926 89.9692 51.5704C89.6164 60.5482 86.2514 69.1459 80.4162 75.9779C74.5811 82.81 66.6157 87.4786 57.8036 89.2314C48.9915 90.9843 39.8459 89.7193 31.8404 85.6403C23.8349 81.5613 17.4358 74.9058 13.6743 66.7464C9.91272 58.5869 9.00775 49.3987 11.1052 40.6622C13.2027 31.9257 18.1804 24.1497 25.2362 18.5873C32.2921 13.0249 41.0152 10 50 10V0Z" fill="#28A264"/>
</svg>
