<svg width="100" height="100" viewBox="0 0 100 100" fill="none" xmlns="http://www.w3.org/2000/svg">
<path d="M29.296 59C29.152 59 29.032 58.952 28.936 58.856C28.84 58.744 28.792 58.616 28.792 58.472C28.792 58.392 28.8 58.328 28.816 58.28C28.848 58.232 28.872 58.192 28.888 58.16L32.368 53.408C32.08 53.472 31.792 53.496 31.504 53.48C30.736 53.448 30.008 53.296 29.32 53.024C28.632 52.736 28.016 52.344 27.472 51.848C26.928 51.352 26.504 50.768 26.2 50.096C25.896 49.424 25.744 48.68 25.744 47.864C25.744 47.128 25.88 46.408 26.152 45.704C26.44 45 26.864 44.368 27.424 43.808C27.984 43.248 28.68 42.8 29.512 42.464C30.344 42.128 31.312 41.96 32.416 41.96C33.52 41.96 34.488 42.112 35.32 42.416C36.168 42.72 36.88 43.144 37.456 43.688C38.032 44.216 38.464 44.832 38.752 45.536C39.04 46.224 39.184 46.96 39.184 47.744C39.184 48.448 39.064 49.104 38.824 49.712C38.584 50.32 38.288 50.888 37.936 51.416C37.584 51.944 37.232 52.456 36.88 52.952L32.848 58.52C32.784 58.6 32.688 58.704 32.56 58.832C32.432 58.944 32.248 59 32.008 59H29.296ZM32.44 50.648C32.968 50.648 33.448 50.536 33.88 50.312C34.312 50.088 34.648 49.768 34.888 49.352C35.144 48.936 35.272 48.44 35.272 47.864C35.272 47.272 35.144 46.768 34.888 46.352C34.648 45.936 34.312 45.616 33.88 45.392C33.448 45.168 32.968 45.056 32.44 45.056C31.928 45.056 31.456 45.168 31.024 45.392C30.592 45.616 30.248 45.936 29.992 46.352C29.752 46.768 29.632 47.272 29.632 47.864C29.632 48.44 29.752 48.936 29.992 49.352C30.248 49.768 30.592 50.088 31.024 50.312C31.456 50.536 31.928 50.648 32.44 50.648ZM48.0858 59.24C46.9658 59.24 45.9738 59.112 45.1098 58.856C44.2618 58.584 43.5498 58.216 42.9738 57.752C42.3978 57.272 41.9658 56.72 41.6777 56.096C41.3898 55.456 41.2458 54.76 41.2458 54.008C41.2458 53.096 41.4698 52.304 41.9178 51.632C42.3658 50.96 42.9338 50.44 43.6217 50.072C43.0618 49.704 42.6218 49.24 42.3018 48.68C41.9978 48.104 41.8458 47.44 41.8458 46.688C41.8458 45.776 42.0778 44.968 42.5418 44.264C43.0058 43.56 43.6938 43 44.6058 42.584C45.5338 42.168 46.6938 41.96 48.0858 41.96C49.4618 41.96 50.6058 42.168 51.5178 42.584C52.4298 42.984 53.1178 43.536 53.5818 44.24C54.0458 44.944 54.2778 45.752 54.2778 46.664C54.2778 47.416 54.1258 48.08 53.8218 48.656C53.5178 49.232 53.0858 49.704 52.5258 50.072C53.2618 50.424 53.8458 50.944 54.2778 51.632C54.7098 52.32 54.9258 53.12 54.9258 54.032C54.9258 55.024 54.6698 55.912 54.1578 56.696C53.6458 57.48 52.8778 58.104 51.8538 58.568C50.8298 59.016 49.5738 59.24 48.0858 59.24ZM48.0858 56.48C48.6458 56.48 49.1578 56.384 49.6218 56.192C50.0858 55.984 50.4458 55.696 50.7018 55.328C50.9738 54.96 51.1098 54.528 51.1098 54.032C51.1098 53.52 50.9738 53.088 50.7018 52.736C50.4458 52.368 50.0858 52.088 49.6218 51.896C49.1578 51.688 48.6458 51.584 48.0858 51.584C47.5098 51.584 46.9898 51.688 46.5258 51.896C46.0778 52.088 45.7178 52.368 45.4458 52.736C45.1738 53.088 45.0378 53.52 45.0378 54.032C45.0378 54.528 45.1738 54.96 45.4458 55.328C45.7178 55.696 46.0778 55.984 46.5258 56.192C46.9898 56.384 47.5098 56.48 48.0858 56.48ZM48.0858 48.968C48.5818 48.952 49.0298 48.856 49.4298 48.68C49.8298 48.504 50.1498 48.264 50.3898 47.96C50.6298 47.64 50.7498 47.272 50.7498 46.856C50.7498 46.424 50.6298 46.056 50.3898 45.752C50.1658 45.432 49.8538 45.184 49.4538 45.008C49.0538 44.832 48.5978 44.744 48.0858 44.744C47.5738 44.744 47.1098 44.832 46.6938 45.008C46.2938 45.184 45.9818 45.432 45.7578 45.752C45.5338 46.056 45.4218 46.424 45.4218 46.856C45.4218 47.288 45.5338 47.664 45.7578 47.984C45.9818 48.288 46.2938 48.528 46.6938 48.704C47.1098 48.88 47.5738 48.968 48.0858 48.968ZM58.7421 59C58.3901 59 58.2141 58.84 58.2141 58.52C58.2141 58.424 58.2461 58.336 58.3101 58.256L70.1661 42.656C70.2781 42.512 70.3901 42.4 70.5021 42.32C70.6141 42.24 70.7741 42.2 70.9821 42.2H72.4701C72.8221 42.2 72.9981 42.36 72.9981 42.68C72.9981 42.776 72.9661 42.864 72.9021 42.944L61.0461 58.544C60.9341 58.688 60.8221 58.8 60.7101 58.88C60.6141 58.96 60.4541 59 60.2301 59H58.7421ZM70.5501 59.12C69.4621 59.12 68.5981 58.832 67.9581 58.256C67.3341 57.68 66.9901 56.912 66.9261 55.952C66.8941 55.536 66.8781 55.168 66.8781 54.848C66.8941 54.528 66.9101 54.144 66.9261 53.696C66.9741 52.736 67.3021 51.96 67.9101 51.368C68.5341 50.776 69.4141 50.48 70.5501 50.48C71.6861 50.48 72.5581 50.776 73.1661 51.368C73.7901 51.96 74.1261 52.736 74.1741 53.696C74.2061 54.144 74.2221 54.528 74.2221 54.848C74.2221 55.168 74.2061 55.536 74.1741 55.952C74.1261 56.912 73.7741 57.68 73.1181 58.256C72.4781 58.832 71.6221 59.12 70.5501 59.12ZM70.5501 57.152C70.8541 57.152 71.0941 57.088 71.2701 56.96C71.4461 56.832 71.5741 56.664 71.6541 56.456C71.7501 56.248 71.8061 56.032 71.8221 55.808C71.8541 55.44 71.8701 55.112 71.8701 54.824C71.8701 54.52 71.8541 54.184 71.8221 53.816C71.8061 53.48 71.7021 53.176 71.5101 52.904C71.3181 52.632 70.9981 52.496 70.5501 52.496C70.1021 52.496 69.7821 52.632 69.5901 52.904C69.4141 53.176 69.3101 53.48 69.2781 53.816C69.2621 54.184 69.2541 54.52 69.2541 54.824C69.2541 55.112 69.2621 55.44 69.2781 55.808C69.3101 56.032 69.3581 56.248 69.4221 56.456C69.5021 56.664 69.6301 56.832 69.8061 56.96C69.9981 57.088 70.2461 57.152 70.5501 57.152ZM60.6861 50.672C59.5981 50.672 58.7341 50.392 58.0941 49.832C57.4701 49.256 57.1261 48.488 57.0621 47.528C57.0301 47.112 57.0141 46.752 57.0141 46.448C57.0301 46.128 57.0461 45.744 57.0621 45.296C57.1101 44.32 57.4381 43.544 58.0461 42.968C58.6701 42.376 59.5501 42.08 60.6861 42.08C61.8381 42.08 62.7181 42.376 63.3261 42.968C63.9341 43.544 64.2621 44.32 64.3101 45.296C64.3421 45.744 64.3581 46.128 64.3581 46.448C64.3581 46.752 64.3421 47.112 64.3101 47.528C64.2621 48.488 63.9181 49.256 63.2781 49.832C62.6381 50.392 61.7741 50.672 60.6861 50.672ZM60.6861 48.728C60.9901 48.728 61.2301 48.664 61.4061 48.536C61.5821 48.408 61.7101 48.24 61.7901 48.032C61.8861 47.824 61.9421 47.616 61.9581 47.408C61.9901 47.024 62.0061 46.688 62.0061 46.4C62.0061 46.096 61.9901 45.768 61.9581 45.416C61.9421 45.08 61.8381 44.776 61.6461 44.504C61.4541 44.216 61.1341 44.072 60.6861 44.072C60.2381 44.072 59.9181 44.216 59.7261 44.504C59.5501 44.776 59.4461 45.08 59.4141 45.416C59.3981 45.768 59.3901 46.096 59.3901 46.4C59.3901 46.688 59.3981 47.024 59.4141 47.408C59.4461 47.616 59.5021 47.824 59.5821 48.032C59.6621 48.24 59.7901 48.408 59.9661 48.536C60.1421 48.664 60.3821 48.728 60.6861 48.728Z" fill="black"/>
<path d="M100 50C100 77.6142 77.6142 100 50 100C22.3858 100 0 77.6142 0 50C0 22.3858 22.3858 0 50 0C77.6142 0 100 22.3858 100 50ZM10 50C10 72.0914 27.9086 90 50 90C72.0914 90 90 72.0914 90 50C90 27.9086 72.0914 10 50 10C27.9086 10 10 27.9086 10 50Z" fill="#DEE2E6"/>
<path d="M50 0C37.0111 -1.54891e-07 24.532 5.05456 15.2044 14.0937C5.87671 23.1328 0.432662 35.447 0.024672 48.4295C-0.383318 61.4119 4.27677 74.0436 13.0184 83.6506C21.7601 93.2576 33.8972 99.0858 46.8605 99.9013C59.8237 100.717 72.5956 96.4559 82.4724 88.0203C92.3492 79.5847 98.5557 67.6366 99.7781 54.7054C101 41.7742 97.1427 28.8748 89.0215 18.7379C80.9003 8.60095 69.1531 2.0222 56.2667 0.394264L55.0133 10.3154C65.3225 11.6178 74.7203 16.8808 81.2172 24.9903C87.7142 33.0998 90.8004 43.4193 89.8225 53.7643C88.8446 64.1093 83.8794 73.6678 75.9779 80.4162C68.0765 87.1647 57.859 90.5735 47.4884 89.9211C37.1178 89.2686 27.4081 84.6061 20.4148 76.9205C13.4214 69.2349 9.69335 59.1295 10.0197 48.7436C10.3461 38.3576 14.7014 28.5062 22.1635 21.2749C29.6256 14.0436 39.6089 10 50 10V0Z" fill="#28A264"/>
</svg>
