<svg width="160" height="81" viewBox="0 0 160 81" fill="none" xmlns="http://www.w3.org/2000/svg">
<path d="M0 80.0944C0 69.5887 2.06926 59.1858 6.08963 49.4797C10.11 39.7737 16.0028 30.9545 23.4315 23.5259C30.8601 16.0972 39.6793 10.2044 49.3853 6.18404C59.0914 2.16367 69.4942 0.0944057 80 0.0944061C90.5058 0.0944066 100.909 2.16367 110.615 6.18405C120.321 10.2044 129.14 16.0972 136.569 23.5259C143.997 30.9546 149.89 39.7737 153.91 49.4797C157.931 59.1858 160 69.5887 160 80.0944H140C140 72.2151 138.448 64.4129 135.433 57.1334C132.417 49.8539 127.998 43.2395 122.426 37.668C116.855 32.0965 110.241 27.6769 102.961 24.6616C95.6815 21.6464 87.8793 20.0944 80 20.0944C72.1207 20.0944 64.3185 21.6464 57.039 24.6616C49.7595 27.6769 43.1451 32.0965 37.5736 37.668C32.0021 43.2395 27.5825 49.8539 24.5672 57.1334C21.5519 64.4129 20 72.2151 20 80.0944H0Z" fill="#DEE2E6"/>
<path d="M0 80.0944C9.18442e-07 69.5886 2.06926 59.1858 6.08964 49.4797C10.11 39.7737 16.0028 30.9545 23.4315 23.5259C30.8602 16.0972 39.6793 10.2044 49.3853 6.18404C59.0914 2.16366 69.4943 0.0944048 80 0.0944061C90.5058 0.0944075 100.909 2.16367 110.615 6.18405C120.321 10.2044 129.14 16.0972 136.569 23.5259C143.997 30.9546 149.89 39.7737 153.91 49.4797C157.931 59.1858 160 69.5887 160 80.0944L140 80.0944C140 72.2151 138.448 64.4129 135.433 57.1334C132.417 49.8539 127.998 43.2395 122.426 37.668C116.855 32.0965 110.241 27.6769 102.961 24.6616C95.6815 21.6464 87.8793 20.0944 80 20.0944C72.1207 20.0944 64.3185 21.6463 57.039 24.6616C49.7595 27.6769 43.1451 32.0965 37.5736 37.668C32.0021 43.2395 27.5825 49.8539 24.5672 57.1334C21.5519 64.4129 20 72.2151 20 80.0944H0Z" fill="#0956AF"/>
</svg>
