<svg width="48" height="48" viewBox="0 0 48 48" fill="none" xmlns="http://www.w3.org/2000/svg">
<path d="M12.75 28.5C11.7678 28.5015 10.7978 28.7172 9.90766 29.1323C9.0175 29.5473 8.22863 30.1516 7.59612 30.903C6.96361 31.6544 6.50269 32.5347 6.24553 33.4826C5.98837 34.4305 5.94116 35.4231 6.1072 36.3911C6.27324 37.3592 6.64853 38.2793 7.20688 39.0873C7.76523 39.8953 8.49318 40.5717 9.33993 41.0694C10.1867 41.567 11.1318 41.8739 12.1094 41.9686C13.087 42.0632 14.0735 41.9434 15 41.6175" stroke="#0956AF" stroke-width="2" stroke-linecap="round" stroke-linejoin="round"/>
<path d="M6.59399 32.1112C5.24751 31.463 4.08363 30.4897 3.2074 29.2791C2.33118 28.0686 1.77018 26.6589 1.57505 25.1773C1.37991 23.6957 1.55678 22.1888 2.08968 20.7926C2.62259 19.3965 3.49476 18.155 4.62749 17.1802M4.69499 16.998C3.95709 15.8938 3.63367 14.5641 3.78198 13.2444C3.9303 11.9246 4.5408 10.6999 5.50538 9.78708C6.46997 8.87422 7.72644 8.3321 9.05235 8.25668C10.3783 8.18126 11.6881 8.57741 12.75 9.375M13.2855 9.52125C12.9266 8.7586 12.7436 7.92503 12.7502 7.08216C12.7567 6.2393 12.9526 5.40868 13.3234 4.6517C13.6941 3.89473 14.2303 3.23076 14.8921 2.70886C15.554 2.18696 16.3247 1.82049 17.1473 1.63652C17.9699 1.45256 18.8233 1.45581 19.6444 1.64603C20.4656 1.83625 21.2335 2.20859 21.8914 2.73551C22.5493 3.26243 23.0803 3.93047 23.4453 4.69024C23.8103 5.45002 23.9998 6.2821 24 7.125M24 7.125V42M24 7.125C24.0001 6.2821 24.1897 5.45002 24.5547 4.69024C24.9197 3.93047 25.4507 3.26243 26.1086 2.73551C26.7665 2.20859 27.5344 1.83625 28.3555 1.64603C29.1767 1.45581 30.0301 1.45256 30.8527 1.63652C31.6752 1.82049 32.446 2.18696 33.1078 2.70886C33.7697 3.23076 34.3059 3.89473 34.6766 4.6517C35.0474 5.40868 35.2433 6.2393 35.2498 7.08216C35.2564 7.92503 35.0734 8.7586 34.7145 9.52125M24 42C24 43.1935 23.5259 44.3381 22.682 45.182C21.8381 46.0259 20.6935 46.5 19.5 46.5C18.3065 46.5 17.1619 46.0259 16.318 45.182C15.4741 44.3381 15 43.1935 15 42M24 42C24 43.1935 24.4741 44.3381 25.318 45.182C26.1619 46.0259 27.3065 46.5 28.5 46.5M24 12.75C24 14.5402 24.7111 16.2571 25.977 17.523C27.2429 18.7888 28.9598 19.5 30.75 19.5M43.3725 17.1802C44.3548 18.0241 45.143 19.0706 45.6828 20.2477C46.2227 21.4249 46.5014 22.7049 46.5 24C46.5 25.5817 46.0927 27.069 45.375 28.3605M43.305 16.998C44.0429 15.8938 44.3663 14.5641 44.218 13.2444C44.0697 11.9246 43.4592 10.6999 42.4946 9.78708C41.53 8.87422 40.2735 8.3321 38.9476 8.25668C37.6217 8.18126 36.3119 8.57741 35.25 9.375" stroke="#0956AF" stroke-width="2" stroke-linecap="round" stroke-linejoin="round"/>
<path d="M39.0007 33L35.2499 39.75H44.2499L40.4992 46.5" stroke="#F8B324" stroke-width="2" stroke-linecap="round" stroke-linejoin="round"/>
</svg>
