<svg width="160" height="80" viewBox="0 0 160 80" fill="none" xmlns="http://www.w3.org/2000/svg">
<path d="M0 80C0 69.4942 2.06926 59.0914 6.08963 49.3853C10.11 39.6793 16.0028 30.8601 23.4315 23.4315C30.8601 16.0028 39.6793 10.11 49.3853 6.08964C59.0914 2.06926 69.4942 -4.59221e-07 80 0C90.5058 4.59221e-07 100.909 2.06926 110.615 6.08964C120.321 10.11 129.14 16.0028 136.569 23.4315C143.997 30.8601 149.89 39.6793 153.91 49.3853C157.931 59.0914 160 69.4943 160 80H140C140 72.1207 138.448 64.3185 135.433 57.039C132.417 49.7595 127.998 43.1451 122.426 37.5736C116.855 32.0021 110.241 27.5825 102.961 24.5672C95.6815 21.5519 87.8793 20 80 20C72.1207 20 64.3185 21.5519 57.039 24.5672C49.7595 27.5825 43.1451 32.0021 37.5736 37.5736C32.0021 43.1451 27.5825 49.7595 24.5672 57.039C21.5519 64.3185 20 72.1207 20 80H0Z" fill="#DEE2E6"/>
<path d="M0.000274658 80C0.000274658 65.8879 3.73328 52.0268 10.8205 39.8234C17.9077 27.62 28.0969 17.5084 40.3542 10.5148C52.6115 3.52118 66.5007 -0.105647 80.6125 0.00234298C94.7242 0.110333 108.556 3.9493 120.705 11.1297L110.529 28.3473C101.417 22.962 91.0432 20.0828 80.4594 20.0018C69.8756 19.9208 59.4587 22.6409 50.2657 27.8861C41.0728 33.1313 33.4309 40.715 28.1154 49.8676C22.8 59.0201 20.0003 69.4159 20.0003 80H0.000274658Z" fill="#28A264"/>
</svg>
