<svg width="49" height="52" viewBox="0 0 49 52" fill="none" xmlns="http://www.w3.org/2000/svg">
<path d="M2.86665 24.1333C2.86665 21.2924 3.42622 18.4793 4.51339 15.8546C5.60057 13.2299 7.19407 10.8451 9.20291 8.83626C11.2118 6.82742 13.5966 5.23392 16.2213 4.14674C18.846 3.05956 21.6591 2.5 24.5 2.5C27.3409 2.5 30.154 3.05956 32.7787 4.14674C35.4034 5.23392 37.7882 6.82742 39.7971 8.83626C41.8059 10.8451 43.3994 13.2299 44.4866 15.8546C45.5738 18.4793 46.1333 21.2924 46.1333 24.1333L35.3167 24.1333C35.3167 22.7129 35.0369 21.3063 34.4933 19.994C33.9497 18.6816 33.153 17.4892 32.1485 16.4848C31.1441 15.4804 29.9517 14.6836 28.6394 14.14C27.327 13.5965 25.9205 13.3167 24.5 13.3167C23.0795 13.3167 21.673 13.5965 20.3606 14.14C19.0483 14.6836 17.8559 15.4804 16.8515 16.4848C15.847 17.4892 15.0503 18.6816 14.5067 19.994C13.9631 21.3063 13.6833 22.7129 13.6833 24.1333H2.86665Z" fill="#B01616"/>
<path d="M2.86665 24.1334C2.86665 19.2158 4.54203 14.4451 7.61668 10.6073C10.6913 6.7695 14.9817 4.09375 19.7808 3.02102C24.5799 1.9483 29.6013 2.54262 34.0173 4.70603C38.4334 6.86944 41.9806 10.4728 44.0744 14.9223L34.2872 19.5279C33.2403 17.3031 31.4667 15.5014 29.2587 14.4197C27.0506 13.338 24.54 13.0408 22.1404 13.5772C19.7409 14.1136 17.5957 15.4514 16.0583 17.3703C14.521 19.2892 13.6833 21.6746 13.6833 24.1334H2.86665Z" fill="#FF6600"/>
<path d="M2.86665 24.1334C2.86665 20.0282 4.0347 16.0077 6.23436 12.5416C8.43402 9.07551 11.5745 6.30682 15.289 4.55892C19.0034 2.81102 23.1386 2.15608 27.2114 2.6706C31.2842 3.18511 35.1265 4.84784 38.2896 7.46458L31.3948 15.799C29.8133 14.4906 27.8921 13.6592 25.8557 13.402C23.8193 13.1447 21.7517 13.4722 19.8945 14.3461C18.0372 15.2201 16.467 16.6044 15.3672 18.3375C14.2673 20.0705 13.6833 22.0808 13.6833 24.1334H2.86665Z" fill="#FF9900"/>
<path d="M2.86665 24.1333C2.86665 20.8342 3.62123 17.5787 5.07266 14.616C6.52409 11.6532 8.63392 9.06173 11.2408 7.03965C13.8476 5.01757 16.8824 3.61851 20.113 2.94948C23.3436 2.28045 26.6845 2.35918 29.88 3.17965L27.19 13.6565C25.5922 13.2463 23.9218 13.2069 22.3065 13.5414C20.6912 13.8759 19.1738 14.5755 17.8704 15.5865C16.567 16.5975 15.512 17.8933 14.7863 19.3747C14.0606 20.856 13.6833 22.4838 13.6833 24.1333H2.86665Z" fill="#FFCC00"/>
<path d="M2.86665 24.1336C2.86665 19.0994 4.62232 14.2229 7.83122 10.344C11.0401 6.46508 15.5013 3.82673 20.4463 2.88342L22.4732 13.5085C20.0007 13.9802 17.7701 15.2993 16.1656 17.2388C14.5612 19.1782 13.6833 21.6165 13.6833 24.1336H2.86665Z" fill="#669900"/>
<path d="M2.86665 24.1332C2.86665 20.7192 3.67464 17.3537 5.22455 14.3119C6.77446 11.27 9.02228 8.63815 11.7842 6.63147L18.1421 15.3823C16.7611 16.3857 15.6372 17.7016 14.8623 19.2225C14.0873 20.7435 13.6833 22.4262 13.6833 24.1332H2.86665Z" fill="#99CC33"/>
<path d="M2.86665 24.1334C2.86665 20.4895 3.78709 16.9046 5.54255 13.7114L15.0213 18.9224C14.1435 20.519 13.6833 22.3114 13.6833 24.1334H2.86665Z" fill="#3399CC"/>
<path d="M18.0451 10.5313L28.3351 22.275L23.0704 25.3146L18.0451 10.5313Z" fill="#ADB5BD"/>
<path d="M28.7341 28.9589L22.9908 25.0903L28.2555 22.0508L28.7341 28.9589Z" fill="#ADB5BD"/>
<path d="M1.57418 45.5C1.47151 45.5 1.39218 45.472 1.33618 45.416C1.28018 45.3507 1.25218 45.2713 1.25218 45.178V36.036C1.25218 35.9333 1.28018 35.854 1.33618 35.798C1.39218 35.7327 1.47151 35.7 1.57418 35.7H2.28818C2.39085 35.7 2.47018 35.7327 2.52618 35.798C2.59151 35.854 2.62418 35.9333 2.62418 36.036V39.9H7.44018V36.036C7.44018 35.9333 7.46818 35.854 7.52418 35.798C7.58951 35.7327 7.66885 35.7 7.76218 35.7H8.47618C8.57885 35.7 8.65818 35.7327 8.71418 35.798C8.77951 35.854 8.81218 35.9333 8.81218 36.036V45.178C8.81218 45.2713 8.77951 45.3507 8.71418 45.416C8.65818 45.472 8.57885 45.5 8.47618 45.5H7.76218C7.66885 45.5 7.58951 45.472 7.52418 45.416C7.46818 45.3507 7.44018 45.2713 7.44018 45.178V41.16H2.62418V45.178C2.62418 45.2713 2.59151 45.3507 2.52618 45.416C2.47018 45.472 2.39085 45.5 2.28818 45.5H1.57418ZM14.7466 45.64C13.9533 45.64 13.272 45.5047 12.7026 45.234C12.1333 44.954 11.6946 44.5293 11.3866 43.96C11.0786 43.3813 10.906 42.658 10.8686 41.79C10.8593 41.3793 10.8546 40.9873 10.8546 40.614C10.8546 40.2313 10.8593 39.8347 10.8686 39.424C10.906 38.5653 11.0833 37.8513 11.4006 37.282C11.7273 36.7033 12.1753 36.274 12.7446 35.994C13.3233 35.7047 13.9906 35.56 14.7466 35.56C15.512 35.56 16.1793 35.7047 16.7486 35.994C17.3273 36.274 17.78 36.7033 18.1066 37.282C18.4333 37.8513 18.6106 38.5653 18.6386 39.424C18.6573 39.8347 18.6666 40.2313 18.6666 40.614C18.6666 40.9873 18.6573 41.3793 18.6386 41.79C18.6106 42.658 18.438 43.3813 18.1206 43.96C17.8126 44.5293 17.374 44.954 16.8046 45.234C16.2353 45.5047 15.5493 45.64 14.7466 45.64ZM14.7466 44.45C15.4653 44.45 16.0486 44.2353 16.4966 43.806C16.954 43.3767 17.2013 42.6813 17.2386 41.72C17.2573 41.3 17.2666 40.9267 17.2666 40.6C17.2666 40.264 17.2573 39.8907 17.2386 39.48C17.22 38.836 17.0986 38.3133 16.8746 37.912C16.66 37.5107 16.3706 37.2167 16.0066 37.03C15.6426 36.8433 15.2226 36.75 14.7466 36.75C14.2893 36.75 13.8786 36.8433 13.5146 37.03C13.1506 37.2167 12.8566 37.5107 12.6326 37.912C12.418 38.3133 12.2966 38.836 12.2686 39.48C12.2593 39.8907 12.2546 40.264 12.2546 40.6C12.2546 40.9267 12.2593 41.3 12.2686 41.72C12.306 42.6813 12.5533 43.3767 13.0106 43.806C13.468 44.2353 14.0466 44.45 14.7466 44.45ZM21.0293 45.5C20.9266 45.5 20.8473 45.472 20.7913 45.416C20.7353 45.3507 20.7073 45.2713 20.7073 45.178V36.036C20.7073 35.9333 20.7353 35.854 20.7913 35.798C20.8473 35.7327 20.9266 35.7 21.0293 35.7H24.5853C25.2759 35.7 25.8733 35.812 26.3773 36.036C26.8906 36.26 27.2873 36.596 27.5673 37.044C27.8473 37.4827 27.9873 38.0333 27.9873 38.696C27.9873 39.3587 27.8473 39.9093 27.5673 40.348C27.2873 40.7867 26.8906 41.118 26.3773 41.342C25.8733 41.566 25.2759 41.678 24.5853 41.678H22.1073V45.178C22.1073 45.2713 22.0746 45.3507 22.0093 45.416C21.9533 45.472 21.8739 45.5 21.7713 45.5H21.0293ZM22.0933 40.502H24.5153C25.2059 40.502 25.7239 40.348 26.0693 40.04C26.4146 39.732 26.5873 39.284 26.5873 38.696C26.5873 38.1173 26.4193 37.6693 26.0833 37.352C25.7473 37.0347 25.2246 36.876 24.5153 36.876H22.0933V40.502ZM30.0117 45.5C29.9183 45.5 29.839 45.472 29.7737 45.416C29.7177 45.3507 29.6897 45.2713 29.6897 45.178V36.036C29.6897 35.9333 29.7177 35.854 29.7737 35.798C29.839 35.7327 29.9183 35.7 30.0117 35.7H30.7117C30.8237 35.7 30.9077 35.728 30.9637 35.784C31.0197 35.84 31.0523 35.8867 31.0617 35.924L34.0297 41.58L37.0117 35.924C37.0303 35.8867 37.063 35.84 37.1097 35.784C37.1657 35.728 37.2497 35.7 37.3617 35.7H38.0477C38.1503 35.7 38.2297 35.7327 38.2857 35.798C38.351 35.854 38.3837 35.9333 38.3837 36.036V45.178C38.3837 45.2713 38.351 45.3507 38.2857 45.416C38.2297 45.472 38.1503 45.5 38.0477 45.5H37.3617C37.2683 45.5 37.189 45.472 37.1237 45.416C37.0677 45.3507 37.0397 45.2713 37.0397 45.178V38.29L34.7017 42.854C34.6643 42.9473 34.6083 43.022 34.5337 43.078C34.459 43.1247 34.3657 43.148 34.2537 43.148H33.8197C33.6983 43.148 33.6003 43.1247 33.5257 43.078C33.4603 43.022 33.4043 42.9473 33.3577 42.854L31.0197 38.29V45.178C31.0197 45.2713 30.987 45.3507 30.9217 45.416C30.8657 45.472 30.791 45.5 30.6977 45.5H30.0117ZM40.1469 45.5C40.0722 45.5 40.0069 45.472 39.9509 45.416C39.8949 45.36 39.8669 45.2947 39.8669 45.22C39.8669 45.1733 39.8716 45.122 39.8809 45.066L43.3529 36.008C43.3902 35.9147 43.4416 35.84 43.5069 35.784C43.5722 35.728 43.6702 35.7 43.8009 35.7H44.7529C44.8742 35.7 44.9676 35.728 45.0329 35.784C45.1076 35.84 45.1636 35.9147 45.2009 36.008L48.6589 45.066C48.6776 45.122 48.6869 45.1733 48.6869 45.22C48.6869 45.2947 48.6589 45.36 48.6029 45.416C48.5469 45.472 48.4816 45.5 48.4069 45.5H47.6929C47.5809 45.5 47.4969 45.472 47.4409 45.416C47.3942 45.36 47.3616 45.3087 47.3429 45.262L46.5729 43.274H41.9809L41.2109 45.262C41.2016 45.3087 41.1689 45.36 41.1129 45.416C41.0569 45.472 40.9729 45.5 40.8609 45.5H40.1469ZM42.3869 42.07H46.1669L44.2769 37.1L42.3869 42.07Z" fill="#0956AF"/>
</svg>
