<svg width="160" height="80" viewBox="0 0 160 80" fill="none" xmlns="http://www.w3.org/2000/svg">
<path d="M0 80C0 69.4942 2.06926 59.0914 6.08963 49.3853C10.11 39.6793 16.0028 30.8601 23.4315 23.4315C30.8601 16.0028 39.6793 10.11 49.3853 6.08964C59.0914 2.06926 69.4942 -4.59221e-07 80 0C90.5058 4.59221e-07 100.909 2.06926 110.615 6.08964C120.321 10.11 129.14 16.0028 136.569 23.4315C143.997 30.8601 149.89 39.6793 153.91 49.3853C157.931 59.0914 160 69.4943 160 80H140C140 72.1207 138.448 64.3185 135.433 57.039C132.417 49.7595 127.998 43.1451 122.426 37.5736C116.855 32.0021 110.241 27.5825 102.961 24.5672C95.6815 21.5519 87.8793 20 80 20C72.1207 20 64.3185 21.5519 57.039 24.5672C49.7595 27.5825 43.1451 32.0021 37.5736 37.5736C32.0021 43.1451 27.5825 49.7595 24.5672 57.039C21.5519 64.3185 20 72.1207 20 80H0Z" fill="#DEE2E6"/>
<path d="M0 79.9676C1.18977e-06 66.3583 3.47189 52.9739 10.0873 41.0805C16.7026 29.1872 26.2428 19.1781 37.8052 12L48.3539 28.9919C39.6821 34.3755 32.527 41.8823 27.5654 50.8023C22.6039 59.7223 20 69.7606 20 79.9676H0Z" fill="#EF233C"/>
</svg>
