<svg width="282" height="235" viewBox="0 0 282 235" fill="none" xmlns="http://www.w3.org/2000/svg">
<path fill-rule="evenodd" clip-rule="evenodd" d="M140.083 19.9141L243.223 94.8494L203.827 216.097H76.3393L36.9434 94.8494L140.083 19.9141Z" fill="#E6E6E6" stroke="#C0C0C0"/>
<path fill-rule="evenodd" clip-rule="evenodd" d="M140.083 41.6036L222.594 101.552L191.078 198.55H89.0877L57.571 101.552L140.083 41.6036Z" fill="#F5F5F5" stroke="#C0C0C0"/>
<path fill-rule="evenodd" clip-rule="evenodd" d="M140.083 63.293L201.967 108.254L178.329 181.003H101.837L78.1991 108.254L140.083 63.293Z" fill="#E6E6E6" stroke="#C0C0C0"/>
<path fill-rule="evenodd" clip-rule="evenodd" d="M140.083 84.9825L181.339 114.957L165.581 163.456H114.586L98.8273 114.957L140.083 84.9825Z" fill="#F5F5F5" stroke="#C0C0C0"/>
<path fill-rule="evenodd" clip-rule="evenodd" d="M140.083 106.672L160.711 121.659L152.832 145.909H127.334L119.455 121.659L140.083 106.672Z" fill="#E6E6E6" stroke="#C0C0C0"/>
<path d="M140.083 128.362V19.9141" stroke="#C0C0C0"/>
<path d="M140.083 128.362L243.223 94.8494" stroke="#C0C0C0"/>
<path d="M140.083 128.362L203.827 216.097" stroke="#C0C0C0"/>
<path d="M140.083 128.362L76.3392 216.097" stroke="#C0C0C0"/>
<path d="M140.083 128.362L36.9434 94.8494" stroke="#C0C0C0"/>
<path d="M128.687 5.6543H126.408V4.73438H128.687C129.129 4.73438 129.486 4.66406 129.76 4.52344C130.033 4.38281 130.232 4.1875 130.357 3.9375C130.486 3.6875 130.551 3.40234 130.551 3.08203C130.551 2.78906 130.486 2.51367 130.357 2.25586C130.232 1.99805 130.033 1.79102 129.76 1.63477C129.486 1.47461 129.129 1.39453 128.687 1.39453H126.672V9H125.541V0.46875H128.687C129.332 0.46875 129.877 0.580078 130.322 0.802734C130.767 1.02539 131.105 1.33398 131.336 1.72852C131.566 2.11914 131.682 2.56641 131.682 3.07031C131.682 3.61719 131.566 4.08398 131.336 4.4707C131.105 4.85742 130.767 5.15234 130.322 5.35547C129.877 5.55469 129.332 5.6543 128.687 5.6543ZM134.031 0V9H132.947V0H134.031ZM133.773 5.58984L133.322 5.57227C133.326 5.13867 133.391 4.73828 133.516 4.37109C133.641 4 133.816 3.67773 134.043 3.4043C134.269 3.13086 134.539 2.91992 134.851 2.77148C135.168 2.61914 135.517 2.54297 135.9 2.54297C136.213 2.54297 136.494 2.58594 136.744 2.67188C136.994 2.75391 137.207 2.88672 137.383 3.07031C137.562 3.25391 137.699 3.49219 137.793 3.78516C137.887 4.07422 137.933 4.42773 137.933 4.8457V9H136.844V4.83398C136.844 4.50195 136.795 4.23633 136.697 4.03711C136.599 3.83398 136.457 3.6875 136.269 3.59766C136.082 3.50391 135.851 3.45703 135.578 3.45703C135.308 3.45703 135.062 3.51367 134.84 3.62695C134.621 3.74023 134.432 3.89648 134.271 4.0957C134.115 4.29492 133.992 4.52344 133.902 4.78125C133.816 5.03516 133.773 5.30469 133.773 5.58984ZM139.269 5.90039V5.76562C139.269 5.30859 139.336 4.88477 139.469 4.49414C139.601 4.09961 139.793 3.75781 140.043 3.46875C140.293 3.17578 140.596 2.94922 140.951 2.78906C141.307 2.625 141.705 2.54297 142.146 2.54297C142.592 2.54297 142.992 2.625 143.348 2.78906C143.707 2.94922 144.012 3.17578 144.262 3.46875C144.516 3.75781 144.709 4.09961 144.842 4.49414C144.974 4.88477 145.041 5.30859 145.041 5.76562V5.90039C145.041 6.35742 144.974 6.78125 144.842 7.17188C144.709 7.5625 144.516 7.9043 144.262 8.19727C144.012 8.48633 143.709 8.71289 143.353 8.87695C143.002 9.03711 142.603 9.11719 142.158 9.11719C141.713 9.11719 141.312 9.03711 140.957 8.87695C140.601 8.71289 140.297 8.48633 140.043 8.19727C139.793 7.9043 139.601 7.5625 139.469 7.17188C139.336 6.78125 139.269 6.35742 139.269 5.90039ZM140.353 5.76562V5.90039C140.353 6.2168 140.391 6.51562 140.465 6.79688C140.539 7.07422 140.65 7.32031 140.799 7.53516C140.951 7.75 141.141 7.91992 141.367 8.04492C141.594 8.16602 141.857 8.22656 142.158 8.22656C142.455 8.22656 142.715 8.16602 142.937 8.04492C143.164 7.91992 143.351 7.75 143.5 7.53516C143.648 7.32031 143.76 7.07422 143.834 6.79688C143.912 6.51562 143.951 6.2168 143.951 5.90039V5.76562C143.951 5.45312 143.912 5.1582 143.834 4.88086C143.76 4.59961 143.646 4.35156 143.494 4.13672C143.346 3.91797 143.158 3.74609 142.932 3.62109C142.709 3.49609 142.447 3.43359 142.146 3.43359C141.849 3.43359 141.588 3.49609 141.361 3.62109C141.139 3.74609 140.951 3.91797 140.799 4.13672C140.65 4.35156 140.539 4.59961 140.465 4.88086C140.391 5.1582 140.353 5.45312 140.353 5.76562ZM149.055 2.66016V3.49219H145.627V2.66016H149.055ZM146.787 1.11914H147.871V7.42969C147.871 7.64453 147.904 7.80664 147.971 7.91602C148.037 8.02539 148.123 8.09766 148.228 8.13281C148.334 8.16797 148.447 8.18555 148.568 8.18555C148.658 8.18555 148.752 8.17773 148.849 8.16211C148.951 8.14258 149.027 8.12695 149.078 8.11523L149.084 9C148.998 9.02734 148.885 9.05273 148.744 9.07617C148.607 9.10352 148.441 9.11719 148.246 9.11719C147.98 9.11719 147.736 9.06445 147.514 8.95898C147.291 8.85352 147.113 8.67773 146.98 8.43164C146.851 8.18164 146.787 7.8457 146.787 7.42383V1.11914ZM149.922 5.90039V5.76562C149.922 5.30859 149.988 4.88477 150.121 4.49414C150.254 4.09961 150.445 3.75781 150.695 3.46875C150.945 3.17578 151.248 2.94922 151.603 2.78906C151.959 2.625 152.357 2.54297 152.799 2.54297C153.244 2.54297 153.644 2.625 154 2.78906C154.359 2.94922 154.664 3.17578 154.914 3.46875C155.168 3.75781 155.361 4.09961 155.494 4.49414C155.627 4.88477 155.693 5.30859 155.693 5.76562V5.90039C155.693 6.35742 155.627 6.78125 155.494 7.17188C155.361 7.5625 155.168 7.9043 154.914 8.19727C154.664 8.48633 154.361 8.71289 154.006 8.87695C153.654 9.03711 153.256 9.11719 152.81 9.11719C152.365 9.11719 151.965 9.03711 151.609 8.87695C151.254 8.71289 150.949 8.48633 150.695 8.19727C150.445 7.9043 150.254 7.5625 150.121 7.17188C149.988 6.78125 149.922 6.35742 149.922 5.90039ZM151.006 5.76562V5.90039C151.006 6.2168 151.043 6.51562 151.117 6.79688C151.191 7.07422 151.303 7.32031 151.451 7.53516C151.603 7.75 151.793 7.91992 152.019 8.04492C152.246 8.16602 152.51 8.22656 152.81 8.22656C153.107 8.22656 153.367 8.16602 153.59 8.04492C153.816 7.91992 154.004 7.75 154.152 7.53516C154.301 7.32031 154.412 7.07422 154.486 6.79688C154.564 6.51562 154.603 6.2168 154.603 5.90039V5.76562C154.603 5.45312 154.564 5.1582 154.486 4.88086C154.412 4.59961 154.299 4.35156 154.146 4.13672C153.998 3.91797 153.81 3.74609 153.584 3.62109C153.361 3.49609 153.099 3.43359 152.799 3.43359C152.502 3.43359 152.24 3.49609 152.014 3.62109C151.791 3.74609 151.603 3.91797 151.451 4.13672C151.303 4.35156 151.191 4.59961 151.117 4.88086C151.043 5.1582 151.006 5.45312 151.006 5.76562ZM131.711 21.3184C131.711 21.1621 131.676 21.0176 131.605 20.8848C131.539 20.748 131.4 20.625 131.189 20.5156C130.982 20.4023 130.67 20.3047 130.252 20.2227C129.9 20.1484 129.582 20.0605 129.297 19.959C129.016 19.8574 128.775 19.7344 128.576 19.5898C128.381 19.4453 128.23 19.2754 128.125 19.0801C128.019 18.8848 127.967 18.6562 127.967 18.3945C127.967 18.1445 128.021 17.9082 128.131 17.6855C128.244 17.4629 128.402 17.2656 128.605 17.0938C128.812 16.9219 129.06 16.7871 129.349 16.6895C129.639 16.5918 129.961 16.543 130.316 16.543C130.824 16.543 131.258 16.6328 131.617 16.8125C131.976 16.9922 132.252 17.2324 132.443 17.5332C132.635 17.8301 132.73 18.1602 132.73 18.5234H131.646C131.646 18.3477 131.594 18.1777 131.488 18.0137C131.387 17.8457 131.236 17.707 131.037 17.5977C130.842 17.4883 130.601 17.4336 130.316 17.4336C130.016 17.4336 129.771 17.4805 129.584 17.5742C129.4 17.6641 129.266 17.7793 129.18 17.9199C129.098 18.0605 129.057 18.209 129.057 18.3652C129.057 18.4824 129.076 18.5879 129.115 18.6816C129.158 18.7715 129.232 18.8555 129.338 18.9336C129.443 19.0078 129.592 19.0781 129.783 19.1445C129.974 19.2109 130.219 19.2773 130.516 19.3438C131.035 19.4609 131.463 19.6016 131.799 19.7656C132.135 19.9297 132.385 20.1309 132.549 20.3691C132.713 20.6074 132.795 20.8965 132.795 21.2363C132.795 21.5137 132.736 21.7676 132.619 21.998C132.506 22.2285 132.34 22.4277 132.121 22.5957C131.906 22.7598 131.648 22.8887 131.348 22.9824C131.051 23.0723 130.717 23.1172 130.346 23.1172C129.787 23.1172 129.314 23.0176 128.928 22.8184C128.541 22.6191 128.248 22.3613 128.049 22.0449C127.849 21.7285 127.75 21.3945 127.75 21.043H128.84C128.855 21.3398 128.941 21.5762 129.098 21.752C129.254 21.9238 129.445 22.0469 129.672 22.1211C129.898 22.1914 130.123 22.2266 130.346 22.2266C130.642 22.2266 130.891 22.1875 131.09 22.1094C131.293 22.0312 131.447 21.9238 131.553 21.7871C131.658 21.6504 131.711 21.4941 131.711 21.3184ZM135.303 14V23H134.219V14H135.303ZM135.045 19.5898L134.594 19.5723C134.598 19.1387 134.662 18.7383 134.787 18.3711C134.912 18 135.088 17.6777 135.314 17.4043C135.541 17.1309 135.81 16.9199 136.123 16.7715C136.439 16.6191 136.789 16.543 137.172 16.543C137.484 16.543 137.766 16.5859 138.016 16.6719C138.266 16.7539 138.478 16.8867 138.654 17.0703C138.834 17.2539 138.971 17.4922 139.064 17.7852C139.158 18.0742 139.205 18.4277 139.205 18.8457V23H138.115V18.834C138.115 18.502 138.066 18.2363 137.969 18.0371C137.871 17.834 137.728 17.6875 137.541 17.5977C137.353 17.5039 137.123 17.457 136.849 17.457C136.58 17.457 136.334 17.5137 136.111 17.627C135.892 17.7402 135.703 17.8965 135.543 18.0957C135.387 18.2949 135.264 18.5234 135.174 18.7812C135.088 19.0352 135.045 19.3047 135.045 19.5898ZM140.541 19.9004V19.7656C140.541 19.3086 140.607 18.8848 140.74 18.4941C140.873 18.0996 141.064 17.7578 141.314 17.4688C141.564 17.1758 141.867 16.9492 142.223 16.7891C142.578 16.625 142.976 16.543 143.418 16.543C143.863 16.543 144.264 16.625 144.619 16.7891C144.978 16.9492 145.283 17.1758 145.533 17.4688C145.787 17.7578 145.98 18.0996 146.113 18.4941C146.246 18.8848 146.312 19.3086 146.312 19.7656V19.9004C146.312 20.3574 146.246 20.7812 146.113 21.1719C145.98 21.5625 145.787 21.9043 145.533 22.1973C145.283 22.4863 144.98 22.7129 144.625 22.877C144.273 23.0371 143.875 23.1172 143.43 23.1172C142.984 23.1172 142.584 23.0371 142.228 22.877C141.873 22.7129 141.568 22.4863 141.314 22.1973C141.064 21.9043 140.873 21.5625 140.74 21.1719C140.607 20.7812 140.541 20.3574 140.541 19.9004ZM141.625 19.7656V19.9004C141.625 20.2168 141.662 20.5156 141.736 20.7969C141.81 21.0742 141.922 21.3203 142.07 21.5352C142.223 21.75 142.412 21.9199 142.639 22.0449C142.865 22.166 143.129 22.2266 143.43 22.2266C143.726 22.2266 143.986 22.166 144.209 22.0449C144.435 21.9199 144.623 21.75 144.771 21.5352C144.92 21.3203 145.031 21.0742 145.105 20.7969C145.183 20.5156 145.223 20.2168 145.223 19.9004V19.7656C145.223 19.4531 145.183 19.1582 145.105 18.8809C145.031 18.5996 144.918 18.3516 144.766 18.1367C144.617 17.918 144.43 17.7461 144.203 17.6211C143.98 17.4961 143.719 17.4336 143.418 17.4336C143.121 17.4336 142.859 17.4961 142.633 17.6211C142.41 17.7461 142.223 17.918 142.07 18.1367C141.922 18.3516 141.81 18.5996 141.736 18.8809C141.662 19.1582 141.625 19.4531 141.625 19.7656ZM148.756 17.8789V25.4375H147.666V16.6602H148.662L148.756 17.8789ZM153.027 19.7773V19.9004C153.027 20.3613 152.973 20.7891 152.863 21.1836C152.754 21.5742 152.594 21.9141 152.383 22.2031C152.176 22.4922 151.92 22.7168 151.615 22.877C151.31 23.0371 150.961 23.1172 150.566 23.1172C150.164 23.1172 149.808 23.0508 149.5 22.918C149.191 22.7852 148.93 22.5918 148.715 22.3379C148.5 22.084 148.328 21.7793 148.199 21.4238C148.074 21.0684 147.988 20.668 147.941 20.2227V19.5664C147.988 19.0977 148.076 18.6777 148.205 18.3066C148.334 17.9355 148.504 17.6191 148.715 17.3574C148.93 17.0918 149.189 16.8906 149.494 16.7539C149.799 16.6133 150.15 16.543 150.549 16.543C150.947 16.543 151.301 16.6211 151.609 16.7773C151.918 16.9297 152.178 17.1484 152.389 17.4336C152.599 17.7188 152.758 18.0605 152.863 18.459C152.973 18.8535 153.027 19.293 153.027 19.7773ZM151.937 19.9004V19.7773C151.937 19.4609 151.904 19.1641 151.838 18.8867C151.771 18.6055 151.668 18.3594 151.527 18.1484C151.391 17.9336 151.215 17.7656 151 17.6445C150.785 17.5195 150.529 17.457 150.232 17.457C149.959 17.457 149.721 17.5039 149.517 17.5977C149.318 17.6914 149.148 17.8184 149.008 17.9785C148.867 18.1348 148.752 18.3145 148.662 18.5176C148.576 18.7168 148.512 18.9238 148.469 19.1387V20.6562C148.547 20.9297 148.656 21.1875 148.797 21.4297C148.937 21.668 149.125 21.8613 149.359 22.0098C149.594 22.1543 149.889 22.2266 150.244 22.2266C150.537 22.2266 150.789 22.166 151 22.0449C151.215 21.9199 151.391 21.75 151.527 21.5352C151.668 21.3203 151.771 21.0742 151.838 20.7969C151.904 20.5156 151.937 20.2168 151.937 19.9004Z" fill="#333333"/>
<path d="M252.399 80.4702V89.0014H251.268V80.4702H252.399ZM255.469 80.0014V89.0014H254.379V80.0014H255.469ZM258.387 80.0014V89.0014H257.297V80.0014H258.387ZM264.006 87.5366V82.6616H265.096V89.0014H264.059L264.006 87.5366ZM264.211 86.2006L264.662 86.1889C264.662 86.6108 264.618 87.0014 264.528 87.3608C264.442 87.7163 264.301 88.0248 264.106 88.2866C263.91 88.5483 263.655 88.7534 263.338 88.9018C263.022 89.0463 262.637 89.1186 262.184 89.1186C261.875 89.1186 261.592 89.0737 261.334 88.9838C261.08 88.894 260.862 88.7553 260.678 88.5678C260.494 88.3803 260.352 88.1362 260.25 87.8354C260.153 87.5346 260.104 87.1733 260.104 86.7514V82.6616H261.188V86.7631C261.188 87.0483 261.219 87.2846 261.282 87.4721C261.348 87.6557 261.436 87.8022 261.545 87.9116C261.659 88.017 261.784 88.0913 261.92 88.1342C262.061 88.1772 262.205 88.1987 262.354 88.1987C262.815 88.1987 263.18 88.1108 263.45 87.935C263.719 87.7553 263.912 87.5151 264.03 87.2143C264.151 86.9096 264.211 86.5717 264.211 86.2006ZM270.44 87.3198C270.44 87.1635 270.405 87.019 270.334 86.8862C270.268 86.7495 270.129 86.6264 269.918 86.517C269.711 86.4038 269.399 86.3061 268.981 86.2241C268.629 86.1498 268.311 86.062 268.026 85.9604C267.744 85.8588 267.504 85.7358 267.305 85.5913C267.11 85.4467 266.959 85.2768 266.854 85.0815C266.748 84.8862 266.696 84.6577 266.696 84.3959C266.696 84.1459 266.75 83.9096 266.86 83.687C266.973 83.4643 267.131 83.267 267.334 83.0952C267.541 82.9233 267.789 82.7885 268.078 82.6909C268.368 82.5932 268.69 82.5444 269.045 82.5444C269.553 82.5444 269.987 82.6342 270.346 82.8139C270.705 82.9936 270.981 83.2338 271.172 83.5346C271.364 83.8315 271.459 84.1616 271.459 84.5248H270.375C270.375 84.3491 270.323 84.1791 270.217 84.0151C270.116 83.8471 269.965 83.7084 269.766 83.5991C269.571 83.4897 269.33 83.435 269.045 83.435C268.744 83.435 268.5 83.4819 268.313 83.5756C268.129 83.6655 267.994 83.7807 267.909 83.9213C267.827 84.062 267.785 84.2104 267.785 84.3666C267.785 84.4838 267.805 84.5893 267.844 84.6831C267.887 84.7729 267.961 84.8569 268.067 84.935C268.172 85.0092 268.321 85.0795 268.512 85.1459C268.703 85.2123 268.948 85.2788 269.244 85.3452C269.764 85.4623 270.192 85.603 270.528 85.767C270.864 85.9311 271.114 86.1323 271.278 86.3706C271.442 86.6088 271.524 86.8979 271.524 87.2377C271.524 87.5151 271.465 87.769 271.348 87.9995C271.235 88.2299 271.069 88.4291 270.85 88.5971C270.635 88.7612 270.377 88.8901 270.077 88.9838C269.78 89.0737 269.446 89.1186 269.075 89.1186C268.516 89.1186 268.043 89.019 267.657 88.8198C267.27 88.6206 266.977 88.3627 266.778 88.0463C266.578 87.7299 266.479 87.3959 266.479 87.0444H267.569C267.584 87.3413 267.67 87.5776 267.827 87.7534C267.983 87.9252 268.174 88.0483 268.401 88.1225C268.627 88.1928 268.852 88.228 269.075 88.228C269.371 88.228 269.619 88.1889 269.819 88.1108C270.022 88.0327 270.176 87.9252 270.282 87.7885C270.387 87.6518 270.44 87.4956 270.44 87.3198ZM275.602 82.6616V83.4936H272.174V82.6616H275.602ZM273.334 81.1206H274.418V87.4311C274.418 87.6459 274.452 87.8081 274.518 87.9174C274.584 88.0268 274.67 88.0991 274.776 88.1342C274.881 88.1694 274.994 88.187 275.116 88.187C275.205 88.187 275.299 88.1791 275.397 88.1635C275.498 88.144 275.575 88.1284 275.625 88.1166L275.631 89.0014C275.545 89.0288 275.432 89.0541 275.291 89.0776C275.155 89.1049 274.989 89.1186 274.793 89.1186C274.528 89.1186 274.284 89.0659 274.061 88.9604C273.838 88.8549 273.66 88.6791 273.528 88.4331C273.399 88.1831 273.334 87.8471 273.334 87.4252V81.1206ZM277.957 83.6577V89.0014H276.873V82.6616H277.928L277.957 83.6577ZM279.938 82.6264L279.932 83.6342C279.842 83.6147 279.756 83.603 279.674 83.5991C279.596 83.5913 279.506 83.5873 279.405 83.5873C279.155 83.5873 278.934 83.6264 278.743 83.7045C278.551 83.7827 278.389 83.892 278.256 84.0327C278.123 84.1733 278.018 84.3413 277.94 84.5366C277.866 84.728 277.817 84.9389 277.793 85.1694L277.489 85.3452C277.489 84.9623 277.526 84.603 277.6 84.267C277.678 83.9311 277.797 83.6342 277.957 83.3764C278.118 83.1147 278.321 82.9116 278.567 82.767C278.817 82.6186 279.114 82.5444 279.457 82.5444C279.535 82.5444 279.625 82.5541 279.727 82.5737C279.828 82.5893 279.899 82.6069 279.938 82.6264ZM254.76 101.917V98.6538C254.76 98.4038 254.709 98.187 254.608 98.0034C254.51 97.8159 254.362 97.6713 254.162 97.5698C253.963 97.4682 253.717 97.4174 253.424 97.4174C253.151 97.4174 252.91 97.4643 252.703 97.5581C252.5 97.6518 252.34 97.7748 252.223 97.9272C252.11 98.0795 252.053 98.2436 252.053 98.4194H250.969C250.969 98.1928 251.028 97.9682 251.145 97.7456C251.262 97.5229 251.43 97.3217 251.649 97.142C251.871 96.9584 252.137 96.8139 252.446 96.7084C252.758 96.5991 253.106 96.5444 253.489 96.5444C253.95 96.5444 254.356 96.6225 254.707 96.7788C255.063 96.935 255.34 97.1713 255.539 97.4877C255.743 97.8002 255.844 98.1928 255.844 98.6655V101.619C255.844 101.83 255.862 102.054 255.897 102.292C255.936 102.531 255.993 102.736 256.067 102.908V103.001H254.936C254.881 102.876 254.838 102.71 254.807 102.503C254.776 102.292 254.76 102.097 254.76 101.917ZM254.948 99.1577L254.959 99.9194H253.864C253.555 99.9194 253.28 99.9448 253.037 99.9956C252.795 100.042 252.592 100.115 252.428 100.212C252.264 100.31 252.139 100.433 252.053 100.581C251.967 100.726 251.924 100.896 251.924 101.091C251.924 101.29 251.969 101.472 252.059 101.636C252.149 101.8 252.284 101.931 252.463 102.029C252.647 102.123 252.871 102.169 253.137 102.169C253.469 102.169 253.762 102.099 254.016 101.958C254.27 101.818 254.471 101.646 254.619 101.443C254.772 101.24 254.854 101.042 254.866 100.851L255.328 101.373C255.301 101.537 255.227 101.718 255.106 101.917C254.985 102.117 254.823 102.308 254.619 102.492C254.42 102.671 254.182 102.822 253.905 102.943C253.631 103.06 253.323 103.119 252.979 103.119C252.549 103.119 252.172 103.035 251.848 102.867C251.528 102.699 251.278 102.474 251.098 102.193C250.922 101.908 250.834 101.589 250.834 101.238C250.834 100.898 250.901 100.599 251.034 100.341C251.166 100.08 251.358 99.8627 251.608 99.6909C251.858 99.5151 252.159 99.3823 252.51 99.2924C252.862 99.2026 253.254 99.1577 253.688 99.1577H254.948ZM260.203 96.6616V97.4936H256.776V96.6616H260.203ZM257.936 95.1206H259.02V101.431C259.02 101.646 259.053 101.808 259.119 101.917C259.186 102.027 259.272 102.099 259.377 102.134C259.483 102.169 259.596 102.187 259.717 102.187C259.807 102.187 259.901 102.179 259.998 102.164C260.1 102.144 260.176 102.128 260.227 102.117L260.233 103.001C260.147 103.029 260.034 103.054 259.893 103.078C259.756 103.105 259.59 103.119 259.395 103.119C259.129 103.119 258.885 103.066 258.662 102.96C258.44 102.855 258.262 102.679 258.129 102.433C258 102.183 257.936 101.847 257.936 101.425V95.1206ZM261.071 99.9018V99.767C261.071 99.31 261.137 98.8862 261.27 98.4956C261.403 98.101 261.594 97.7592 261.844 97.4702C262.094 97.1772 262.397 96.9506 262.752 96.7905C263.108 96.6264 263.506 96.5444 263.948 96.5444C264.393 96.5444 264.793 96.6264 265.149 96.7905C265.508 96.9506 265.813 97.1772 266.063 97.4702C266.317 97.7592 266.51 98.101 266.643 98.4956C266.776 98.8862 266.842 99.31 266.842 99.767V99.9018C266.842 100.359 266.776 100.783 266.643 101.173C266.51 101.564 266.317 101.906 266.063 102.199C265.813 102.488 265.51 102.714 265.155 102.878C264.803 103.039 264.405 103.119 263.959 103.119C263.514 103.119 263.114 103.039 262.758 102.878C262.403 102.714 262.098 102.488 261.844 102.199C261.594 101.906 261.403 101.564 261.27 101.173C261.137 100.783 261.071 100.359 261.071 99.9018ZM262.155 99.767V99.9018C262.155 100.218 262.192 100.517 262.266 100.798C262.34 101.076 262.452 101.322 262.6 101.537C262.752 101.751 262.942 101.921 263.168 102.046C263.395 102.167 263.659 102.228 263.959 102.228C264.256 102.228 264.516 102.167 264.739 102.046C264.965 101.921 265.153 101.751 265.301 101.537C265.45 101.322 265.561 101.076 265.635 100.798C265.713 100.517 265.752 100.218 265.752 99.9018V99.767C265.752 99.4545 265.713 99.1596 265.635 98.8823C265.561 98.601 265.448 98.353 265.295 98.1381C265.147 97.9194 264.959 97.7475 264.733 97.6225C264.51 97.4975 264.248 97.435 263.948 97.435C263.651 97.435 263.389 97.4975 263.162 97.6225C262.94 97.7475 262.752 97.9194 262.6 98.1381C262.452 98.353 262.34 98.601 262.266 98.8823C262.192 99.1596 262.155 99.4545 262.155 99.767ZM269.285 97.6577V103.001H268.202V96.6616H269.256L269.285 97.6577ZM271.266 96.6264L271.26 97.6342C271.17 97.6147 271.084 97.603 271.002 97.5991C270.924 97.5913 270.834 97.5873 270.733 97.5873C270.483 97.5873 270.262 97.6264 270.071 97.7045C269.879 97.7827 269.717 97.892 269.584 98.0327C269.452 98.1733 269.346 98.3413 269.268 98.5366C269.194 98.728 269.145 98.9389 269.121 99.1694L268.817 99.3452C268.817 98.9623 268.854 98.603 268.928 98.267C269.006 97.9311 269.125 97.6342 269.285 97.3764C269.446 97.1147 269.649 96.9116 269.895 96.767C270.145 96.6186 270.442 96.5444 270.785 96.5444C270.864 96.5444 270.953 96.5541 271.055 96.5737C271.157 96.5893 271.227 96.6069 271.266 96.6264Z" fill="#333333"/>
<path d="M209.859 209.915L211.91 213.185L213.961 209.915H215.279L212.584 214.14L215.344 218.446H214.013L211.91 215.112L209.806 218.446H208.476L211.236 214.14L208.541 209.915H209.859ZM212.959 231.216V223.446H214.049V232.446H213.053L212.959 231.216ZM208.693 229.347V229.224C208.693 228.739 208.752 228.3 208.869 227.905C208.99 227.507 209.16 227.165 209.379 226.88C209.601 226.595 209.865 226.376 210.17 226.224C210.478 226.067 210.822 225.989 211.201 225.989C211.599 225.989 211.947 226.06 212.244 226.2C212.545 226.337 212.799 226.538 213.006 226.804C213.217 227.066 213.383 227.382 213.504 227.753C213.625 228.124 213.709 228.544 213.756 229.013V229.552C213.713 230.017 213.629 230.435 213.504 230.806C213.383 231.177 213.217 231.493 213.006 231.755C212.799 232.017 212.545 232.218 212.244 232.359C211.943 232.495 211.592 232.564 211.189 232.564C210.818 232.564 210.478 232.484 210.17 232.323C209.865 232.163 209.601 231.939 209.379 231.65C209.16 231.36 208.99 231.021 208.869 230.63C208.752 230.235 208.693 229.808 208.693 229.347ZM209.783 229.224V229.347C209.783 229.663 209.814 229.96 209.877 230.237C209.943 230.515 210.045 230.759 210.181 230.97C210.318 231.181 210.492 231.347 210.703 231.468C210.914 231.585 211.166 231.644 211.459 231.644C211.818 231.644 212.113 231.567 212.344 231.415C212.578 231.263 212.765 231.062 212.906 230.812C213.047 230.562 213.156 230.29 213.234 229.997V228.585C213.187 228.37 213.119 228.163 213.029 227.964C212.943 227.761 212.83 227.581 212.689 227.425C212.553 227.265 212.383 227.138 212.179 227.044C211.98 226.95 211.744 226.903 211.47 226.903C211.174 226.903 210.918 226.966 210.703 227.091C210.492 227.212 210.318 227.38 210.181 227.595C210.045 227.806 209.943 228.052 209.877 228.333C209.814 228.61 209.783 228.907 209.783 229.224Z" fill="#333333"/>
<path d="M51.1946 209.915V218.446H50.0637V209.915H51.1946ZM54.1711 213.46V218.446H53.0871V212.107H54.1125L54.1711 213.46ZM53.9133 215.036L53.4621 215.019C53.4661 214.585 53.5305 214.185 53.6555 213.817C53.7805 213.446 53.9563 213.124 54.1828 212.851C54.4094 212.577 54.6789 212.366 54.9914 212.218C55.3078 212.066 55.6575 211.989 56.0403 211.989C56.3528 211.989 56.634 212.032 56.884 212.118C57.134 212.2 57.3469 212.333 57.5227 212.517C57.7024 212.7 57.8391 212.939 57.9328 213.232C58.0266 213.521 58.0735 213.874 58.0735 214.292V218.446H56.9836V214.28C56.9836 213.948 56.9348 213.683 56.8371 213.484C56.7395 213.28 56.5969 213.134 56.4094 213.044C56.2219 212.95 55.9914 212.903 55.718 212.903C55.4485 212.903 55.2024 212.96 54.9797 213.073C54.761 213.187 54.5715 213.343 54.4114 213.542C54.2551 213.741 54.1321 213.97 54.0422 214.228C53.9563 214.482 53.9133 214.751 53.9133 215.036ZM63.7161 217.216V209.446H64.8059V218.446H63.8098L63.7161 217.216ZM59.4504 215.347V215.224C59.4504 214.739 59.509 214.3 59.6262 213.905C59.7473 213.507 59.9172 213.165 60.136 212.88C60.3586 212.595 60.6223 212.376 60.927 212.224C61.2356 212.067 61.5793 211.989 61.9582 211.989C62.3567 211.989 62.7043 212.06 63.0012 212.2C63.302 212.337 63.5559 212.538 63.7629 212.804C63.9739 213.066 64.1399 213.382 64.261 213.753C64.3821 214.124 64.4661 214.544 64.5129 215.013V215.552C64.47 216.017 64.386 216.435 64.261 216.806C64.1399 217.177 63.9739 217.493 63.7629 217.755C63.5559 218.017 63.302 218.218 63.0012 218.359C62.7004 218.495 62.3489 218.564 61.9465 218.564C61.5754 218.564 61.2356 218.484 60.927 218.323C60.6223 218.163 60.3586 217.939 60.136 217.65C59.9172 217.36 59.7473 217.021 59.6262 216.63C59.509 216.235 59.4504 215.808 59.4504 215.347ZM60.5403 215.224V215.347C60.5403 215.663 60.5715 215.96 60.634 216.237C60.7004 216.515 60.802 216.759 60.9387 216.97C61.0754 217.181 61.2493 217.347 61.4602 217.468C61.6711 217.585 61.9231 217.644 62.2161 217.644C62.5754 217.644 62.8703 217.567 63.1008 217.415C63.3352 217.263 63.5227 217.062 63.6633 216.812C63.8039 216.562 63.9133 216.29 63.9914 215.997V214.585C63.9446 214.37 63.8762 214.163 63.7864 213.964C63.7004 213.761 63.5871 213.581 63.4465 213.425C63.3098 213.265 63.1399 213.138 62.9368 213.044C62.7375 212.95 62.5012 212.903 62.2278 212.903C61.9309 212.903 61.675 212.966 61.4602 213.091C61.2493 213.212 61.0754 213.38 60.9387 213.595C60.802 213.806 60.7004 214.052 60.634 214.333C60.5715 214.61 60.5403 214.907 60.5403 215.224ZM69.1243 218.564C68.6828 218.564 68.2825 218.489 67.9231 218.341C67.5676 218.189 67.261 217.976 67.0032 217.702C66.7493 217.429 66.5539 217.105 66.4172 216.73C66.2805 216.355 66.2121 215.944 66.2121 215.499V215.253C66.2121 214.737 66.2883 214.278 66.4407 213.876C66.593 213.47 66.8 213.126 67.0618 212.845C67.3235 212.564 67.6203 212.351 67.9524 212.206C68.2844 212.062 68.6282 211.989 68.9836 211.989C69.4368 211.989 69.8274 212.067 70.1555 212.224C70.4875 212.38 70.759 212.599 70.97 212.88C71.1809 213.157 71.3371 213.485 71.4387 213.864C71.5403 214.239 71.5911 214.65 71.5911 215.095V215.581H66.8567V214.696H70.5071V214.614C70.4914 214.333 70.4328 214.06 70.3313 213.794C70.2336 213.528 70.0774 213.31 69.8625 213.138C69.6477 212.966 69.3547 212.88 68.9836 212.88C68.7375 212.88 68.511 212.933 68.3039 213.038C68.0969 213.14 67.9192 213.292 67.7707 213.495C67.6223 213.698 67.5071 213.946 67.425 214.239C67.343 214.532 67.302 214.87 67.302 215.253V215.499C67.302 215.8 67.343 216.083 67.425 216.349C67.511 216.61 67.634 216.841 67.7942 217.04C67.9582 217.239 68.1555 217.396 68.386 217.509C68.6203 217.622 68.886 217.679 69.1828 217.679C69.5657 217.679 69.8899 217.601 70.1555 217.444C70.4211 217.288 70.6536 217.079 70.8528 216.817L71.509 217.339C71.3723 217.546 71.1985 217.743 70.9875 217.931C70.7766 218.118 70.5168 218.271 70.2082 218.388C69.9036 218.505 69.5422 218.564 69.1243 218.564ZM54.0598 230.765C54.0598 230.609 54.0246 230.464 53.9543 230.331C53.8879 230.194 53.7493 230.071 53.5383 229.962C53.3313 229.849 53.0188 229.751 52.6008 229.669C52.2493 229.595 51.9309 229.507 51.6457 229.405C51.3645 229.304 51.1243 229.181 50.925 229.036C50.7297 228.892 50.5793 228.722 50.4739 228.526C50.3684 228.331 50.3157 228.103 50.3157 227.841C50.3157 227.591 50.3703 227.355 50.4797 227.132C50.593 226.909 50.7512 226.712 50.9543 226.54C51.1614 226.368 51.4094 226.234 51.6985 226.136C51.9875 226.038 52.3098 225.989 52.6653 225.989C53.1731 225.989 53.6067 226.079 53.9661 226.259C54.3254 226.439 54.6008 226.679 54.7922 226.98C54.9836 227.276 55.0793 227.607 55.0793 227.97H53.9953C53.9953 227.794 53.9426 227.624 53.8371 227.46C53.7356 227.292 53.5852 227.153 53.386 227.044C53.1907 226.935 52.9504 226.88 52.6653 226.88C52.3645 226.88 52.1203 226.927 51.9328 227.021C51.7493 227.11 51.6145 227.226 51.5286 227.366C51.4465 227.507 51.4055 227.655 51.4055 227.812C51.4055 227.929 51.425 228.034 51.4641 228.128C51.5071 228.218 51.5813 228.302 51.6868 228.38C51.7922 228.454 51.9407 228.525 52.1321 228.591C52.3235 228.657 52.5676 228.724 52.8645 228.79C53.384 228.907 53.8118 229.048 54.1477 229.212C54.4836 229.376 54.7336 229.577 54.8977 229.816C55.0618 230.054 55.1438 230.343 55.1438 230.683C55.1438 230.96 55.0852 231.214 54.968 231.444C54.8547 231.675 54.6887 231.874 54.47 232.042C54.2551 232.206 53.9973 232.335 53.6965 232.429C53.3996 232.519 53.0657 232.564 52.6946 232.564C52.136 232.564 51.6633 232.464 51.2766 232.265C50.8899 232.066 50.5969 231.808 50.3977 231.491C50.1985 231.175 50.0989 230.841 50.0989 230.489H51.1887C51.2043 230.786 51.2903 231.023 51.4465 231.198C51.6028 231.37 51.7942 231.493 52.0207 231.567C52.2473 231.638 52.4719 231.673 52.6946 231.673C52.9914 231.673 53.2395 231.634 53.4387 231.556C53.6418 231.478 53.7961 231.37 53.9016 231.234C54.0071 231.097 54.0598 230.941 54.0598 230.765ZM57.7453 226.107V232.446H56.6555V226.107H57.7453ZM56.5735 224.425C56.5735 224.249 56.6262 224.101 56.7317 223.98C56.8411 223.859 57.0012 223.798 57.2121 223.798C57.4192 223.798 57.5774 223.859 57.6868 223.98C57.8 224.101 57.8567 224.249 57.8567 224.425C57.8567 224.593 57.8 224.737 57.6868 224.859C57.5774 224.976 57.4192 225.034 57.2121 225.034C57.0012 225.034 56.8411 224.976 56.7317 224.859C56.6262 224.737 56.5735 224.593 56.5735 224.425ZM63.593 226.107H64.5774V232.312C64.5774 232.87 64.4641 233.347 64.2375 233.741C64.011 234.136 63.6946 234.435 63.2883 234.638C62.886 234.845 62.4211 234.948 61.8938 234.948C61.675 234.948 61.4172 234.913 61.1203 234.843C60.8274 234.776 60.5383 234.661 60.2532 234.497C59.9719 234.337 59.7356 234.12 59.5442 233.847L60.1125 233.202C60.3782 233.523 60.6555 233.745 60.9446 233.87C61.2375 233.995 61.5266 234.058 61.8118 234.058C62.1555 234.058 62.4524 233.993 62.7024 233.864C62.9524 233.735 63.1457 233.544 63.2825 233.29C63.4231 233.04 63.4934 232.732 63.4934 232.364V227.501L63.593 226.107ZM59.2278 229.347V229.224C59.2278 228.739 59.2844 228.3 59.3977 227.905C59.5149 227.507 59.6809 227.165 59.8957 226.88C60.1145 226.595 60.3782 226.376 60.6868 226.224C60.9953 226.067 61.343 225.989 61.7297 225.989C62.1282 225.989 62.4758 226.06 62.7727 226.2C63.0735 226.337 63.3274 226.538 63.5344 226.804C63.7453 227.066 63.9114 227.382 64.0325 227.753C64.1536 228.124 64.2375 228.544 64.2844 229.013V229.552C64.2414 230.017 64.1575 230.435 64.0325 230.806C63.9114 231.177 63.7453 231.493 63.5344 231.755C63.3274 232.017 63.0735 232.218 62.7727 232.359C62.4719 232.495 62.1203 232.564 61.718 232.564C61.3391 232.564 60.9953 232.484 60.6868 232.323C60.3821 232.163 60.1203 231.939 59.9016 231.65C59.6828 231.36 59.5149 231.021 59.3977 230.63C59.2844 230.235 59.2278 229.808 59.2278 229.347ZM60.3118 229.224V229.347C60.3118 229.663 60.343 229.96 60.4055 230.237C60.4719 230.515 60.5715 230.759 60.7043 230.97C60.8411 231.181 61.0149 231.347 61.2258 231.468C61.4368 231.585 61.6887 231.644 61.9817 231.644C62.3411 231.644 62.6379 231.567 62.8723 231.415C63.1067 231.263 63.2922 231.062 63.4289 230.812C63.5696 230.562 63.6789 230.29 63.7571 229.997V228.585C63.7141 228.37 63.6477 228.163 63.5578 227.964C63.4719 227.761 63.3586 227.581 63.218 227.425C63.0813 227.265 62.9114 227.138 62.7082 227.044C62.5051 226.95 62.2668 226.903 61.9934 226.903C61.6965 226.903 61.4407 226.966 61.2258 227.091C61.0149 227.212 60.8411 227.38 60.7043 227.595C60.5715 227.806 60.4719 228.052 60.4055 228.333C60.343 228.61 60.3118 228.907 60.3118 229.224ZM67.3078 227.46V232.446H66.2239V226.107H67.2493L67.3078 227.46ZM67.05 229.036L66.5989 229.019C66.6028 228.585 66.6672 228.185 66.7922 227.817C66.9172 227.446 67.093 227.124 67.3196 226.851C67.5461 226.577 67.8157 226.366 68.1282 226.218C68.4446 226.066 68.7942 225.989 69.177 225.989C69.4895 225.989 69.7707 226.032 70.0207 226.118C70.2707 226.2 70.4836 226.333 70.6594 226.517C70.8391 226.7 70.9758 226.939 71.0696 227.232C71.1633 227.521 71.2102 227.874 71.2102 228.292V232.446H70.1203V228.28C70.1203 227.948 70.0715 227.683 69.9739 227.484C69.8762 227.28 69.7336 227.134 69.5461 227.044C69.3586 226.95 69.1282 226.903 68.8547 226.903C68.5852 226.903 68.3391 226.96 68.1164 227.073C67.8977 227.187 67.7082 227.343 67.5481 227.542C67.3918 227.741 67.2688 227.97 67.1789 228.228C67.093 228.482 67.05 228.751 67.05 229.036Z" fill="#333333"/>
<path d="M5.70152 85.6557H3.42222V84.7358H5.70152C6.14292 84.7358 6.50034 84.6655 6.77378 84.5248C7.04722 84.3842 7.24644 84.1889 7.37144 83.9389C7.50034 83.6889 7.5648 83.4038 7.5648 83.0834C7.5648 82.7905 7.50034 82.5151 7.37144 82.2573C7.24644 81.9995 7.04722 81.7924 6.77378 81.6362C6.50034 81.476 6.14292 81.3959 5.70152 81.3959H3.68589V89.0014H2.55503V80.4702H5.70152C6.34605 80.4702 6.89097 80.5815 7.33628 80.8041C7.78159 81.0268 8.11948 81.3354 8.34995 81.7299C8.58042 82.1206 8.69566 82.5678 8.69566 83.0717C8.69566 83.6186 8.58042 84.0854 8.34995 84.4721C8.11948 84.8588 7.78159 85.1538 7.33628 85.3569C6.89097 85.5561 6.34605 85.6557 5.70152 85.6557ZM11.0453 83.6577V89.0014H9.96128V82.6616H11.016L11.0453 83.6577ZM13.0257 82.6264L13.0199 83.6342C12.93 83.6147 12.8441 83.603 12.7621 83.5991C12.6839 83.5913 12.5941 83.5873 12.4925 83.5873C12.2425 83.5873 12.0218 83.6264 11.8304 83.7045C11.639 83.7827 11.4769 83.892 11.3441 84.0327C11.2113 84.1733 11.1058 84.3413 11.0277 84.5366C10.9535 84.728 10.9046 84.9389 10.8812 85.1694L10.5765 85.3452C10.5765 84.9623 10.6136 84.603 10.6878 84.267C10.766 83.9311 10.8851 83.6342 11.0453 83.3764C11.2054 83.1147 11.4085 82.9116 11.6546 82.767C11.9046 82.6186 12.2015 82.5444 12.5453 82.5444C12.6234 82.5444 12.7132 82.5541 12.8148 82.5737C12.9164 82.5893 12.9867 82.6069 13.0257 82.6264ZM16.5414 89.1186C16.1 89.1186 15.6996 89.0444 15.3402 88.8959C14.9847 88.7436 14.6781 88.5307 14.4203 88.2573C14.1664 87.9838 13.971 87.6596 13.8343 87.2846C13.6976 86.9096 13.6292 86.4995 13.6292 86.0541V85.8081C13.6292 85.2924 13.7054 84.8334 13.8578 84.4311C14.0101 84.0248 14.2171 83.6811 14.4789 83.3998C14.7406 83.1186 15.0375 82.9057 15.3695 82.7612C15.7015 82.6166 16.0453 82.5444 16.4007 82.5444C16.8539 82.5444 17.2445 82.6225 17.5726 82.7788C17.9046 82.935 18.1761 83.1538 18.3871 83.435C18.598 83.7123 18.7542 84.0405 18.8558 84.4194C18.9574 84.7944 19.0082 85.2045 19.0082 85.6498V86.1362H14.2738V85.2514H17.9242V85.1694C17.9085 84.8881 17.85 84.6147 17.7484 84.3491C17.6507 84.0834 17.4945 83.8647 17.2796 83.6928C17.0648 83.5209 16.7718 83.435 16.4007 83.435C16.1546 83.435 15.9281 83.4877 15.721 83.5932C15.514 83.6948 15.3363 83.8471 15.1878 84.0502C15.0394 84.2534 14.9242 84.5014 14.8421 84.7944C14.7601 85.0873 14.7191 85.4252 14.7191 85.8081V86.0541C14.7191 86.3549 14.7601 86.6381 14.8421 86.9038C14.9281 87.1655 15.0511 87.3959 15.2113 87.5952C15.3753 87.7944 15.5726 87.9506 15.8031 88.0639C16.0375 88.1772 16.3031 88.2338 16.6 88.2338C16.9828 88.2338 17.307 88.1557 17.5726 87.9995C17.8382 87.8432 18.0707 87.6342 18.2699 87.3725L18.9261 87.894C18.7894 88.101 18.6156 88.2983 18.4046 88.4858C18.1937 88.6733 17.9339 88.8256 17.6253 88.9428C17.3207 89.06 16.9593 89.1186 16.5414 89.1186ZM21.3519 83.9213V89.0014H20.2621V82.6616H21.2933L21.3519 83.9213ZM21.1292 85.5913L20.6253 85.5737C20.6292 85.1401 20.6859 84.7397 20.7953 84.3725C20.9046 84.0014 21.0667 83.6791 21.2816 83.4057C21.4964 83.1323 21.764 82.9213 22.0843 82.7729C22.4046 82.6206 22.7757 82.5444 23.1976 82.5444C23.4945 82.5444 23.7679 82.5873 24.0179 82.6733C24.2679 82.7553 24.4847 82.8862 24.6683 83.0659C24.8519 83.2456 24.9945 83.476 25.096 83.7573C25.1976 84.0385 25.2484 84.3784 25.2484 84.7768V89.0014H24.1644V84.8295C24.1644 84.4975 24.1078 84.2319 23.9945 84.0327C23.8851 83.8334 23.7289 83.6889 23.5257 83.5991C23.3226 83.5053 23.0843 83.4584 22.8109 83.4584C22.4906 83.4584 22.223 83.5151 22.0082 83.6284C21.7933 83.7416 21.6214 83.8979 21.4925 84.0971C21.3636 84.2963 21.2699 84.5248 21.2113 84.7827C21.1566 85.0366 21.1292 85.3061 21.1292 85.5913ZM25.2367 84.9936L24.5101 85.2163C24.514 84.8686 24.5707 84.5346 24.68 84.2143C24.7933 83.894 24.9554 83.6088 25.1664 83.3588C25.3812 83.1088 25.6449 82.9116 25.9574 82.767C26.2699 82.6186 26.6273 82.5444 27.0296 82.5444C27.3695 82.5444 27.6703 82.5893 27.932 82.6791C28.1976 82.769 28.4203 82.9077 28.6 83.0952C28.7835 83.2788 28.9222 83.5151 29.016 83.8041C29.1097 84.0932 29.1566 84.437 29.1566 84.8354V89.0014H28.0667V84.8237C28.0667 84.4682 28.0101 84.1928 27.8968 83.9975C27.7875 83.7983 27.6312 83.6596 27.4281 83.5815C27.2289 83.4995 26.9906 83.4584 26.7132 83.4584C26.475 83.4584 26.264 83.4995 26.0804 83.5815C25.8968 83.6635 25.7425 83.7768 25.6175 83.9213C25.4925 84.062 25.3968 84.2241 25.3304 84.4077C25.2679 84.5913 25.2367 84.7866 25.2367 84.9936ZM12.3812 96.6616V103.001H11.2914V96.6616H12.3812ZM11.2093 94.9799C11.2093 94.8041 11.2621 94.6557 11.3675 94.5346C11.4769 94.4135 11.6371 94.353 11.848 94.353C12.055 94.353 12.2132 94.4135 12.3226 94.5346C12.4359 94.6557 12.4925 94.8041 12.4925 94.9799C12.4925 95.1479 12.4359 95.2924 12.3226 95.4135C12.2132 95.5307 12.055 95.5893 11.848 95.5893C11.6371 95.5893 11.4769 95.5307 11.3675 95.4135C11.2621 95.2924 11.2093 95.1479 11.2093 94.9799ZM16.7523 103.119C16.3109 103.119 15.9105 103.044 15.5511 102.896C15.1957 102.744 14.889 102.531 14.6312 102.257C14.3773 101.984 14.182 101.66 14.0453 101.285C13.9085 100.91 13.8402 100.499 13.8402 100.054V99.8081C13.8402 99.2924 13.9164 98.8334 14.0687 98.4311C14.221 98.0248 14.4281 97.6811 14.6898 97.3998C14.9515 97.1186 15.2484 96.9057 15.5804 96.7612C15.9125 96.6166 16.2562 96.5444 16.6117 96.5444C17.0648 96.5444 17.4554 96.6225 17.7835 96.7788C18.1156 96.935 18.3871 97.1538 18.598 97.435C18.8089 97.7123 18.9652 98.0405 19.0667 98.4194C19.1683 98.7944 19.2191 99.2045 19.2191 99.6498V100.136H14.4847V99.2514H18.1351V99.1694C18.1195 98.8881 18.0609 98.6147 17.9593 98.3491C17.8617 98.0834 17.7054 97.8647 17.4906 97.6928C17.2757 97.5209 16.9828 97.435 16.6117 97.435C16.3656 97.435 16.139 97.4877 15.932 97.5932C15.725 97.6948 15.5472 97.8471 15.3988 98.0502C15.2503 98.2534 15.1351 98.5014 15.0531 98.7944C14.971 99.0873 14.93 99.4252 14.93 99.8081V100.054C14.93 100.355 14.971 100.638 15.0531 100.904C15.139 101.165 15.2621 101.396 15.4222 101.595C15.5863 101.794 15.7835 101.951 16.014 102.064C16.2484 102.177 16.514 102.234 16.8109 102.234C17.1937 102.234 17.5179 102.156 17.7835 101.999C18.0492 101.843 18.2816 101.634 18.4808 101.373L19.1371 101.894C19.0003 102.101 18.8265 102.298 18.6156 102.486C18.4046 102.673 18.1449 102.826 17.8363 102.943C17.5316 103.06 17.1703 103.119 16.7523 103.119ZM21.5687 97.6577V103.001H20.4847V96.6616H21.5394L21.5687 97.6577ZM23.5492 96.6264L23.5433 97.6342C23.4535 97.6147 23.3675 97.603 23.2855 97.5991C23.2074 97.5913 23.1175 97.5873 23.016 97.5873C22.766 97.5873 22.5453 97.6264 22.3539 97.7045C22.1625 97.7827 22.0003 97.892 21.8675 98.0327C21.7347 98.1733 21.6292 98.3413 21.5511 98.5366C21.4769 98.728 21.4281 98.9389 21.4046 99.1694L21.1 99.3452C21.1 98.9623 21.1371 98.603 21.2113 98.267C21.2894 97.9311 21.4085 97.6342 21.5687 97.3764C21.7289 97.1147 21.932 96.9116 22.1781 96.767C22.4281 96.6186 22.725 96.5444 23.0687 96.5444C23.1468 96.5444 23.2367 96.5541 23.3382 96.5737C23.4398 96.5893 23.5101 96.6069 23.5492 96.6264ZM27.0648 103.119C26.6234 103.119 26.223 103.044 25.8636 102.896C25.5082 102.744 25.2015 102.531 24.9437 102.257C24.6898 101.984 24.4945 101.66 24.3578 101.285C24.221 100.91 24.1527 100.499 24.1527 100.054V99.8081C24.1527 99.2924 24.2289 98.8334 24.3812 98.4311C24.5335 98.0248 24.7406 97.6811 25.0023 97.3998C25.264 97.1186 25.5609 96.9057 25.8929 96.7612C26.225 96.6166 26.5687 96.5444 26.9242 96.5444C27.3773 96.5444 27.7679 96.6225 28.096 96.7788C28.4281 96.935 28.6996 97.1538 28.9105 97.435C29.1214 97.7123 29.2777 98.0405 29.3792 98.4194C29.4808 98.7944 29.5316 99.2045 29.5316 99.6498V100.136H24.7972V99.2514H28.4476V99.1694C28.432 98.8881 28.3734 98.6147 28.2718 98.3491C28.1742 98.0834 28.0179 97.8647 27.8031 97.6928C27.5882 97.5209 27.2953 97.435 26.9242 97.435C26.6781 97.435 26.4515 97.4877 26.2445 97.5932C26.0375 97.6948 25.8597 97.8471 25.7113 98.0502C25.5628 98.2534 25.4476 98.5014 25.3656 98.7944C25.2835 99.0873 25.2425 99.4252 25.2425 99.8081V100.054C25.2425 100.355 25.2835 100.638 25.3656 100.904C25.4515 101.165 25.5746 101.396 25.7347 101.595C25.8988 101.794 26.096 101.951 26.3265 102.064C26.5609 102.177 26.8265 102.234 27.1234 102.234C27.5062 102.234 27.8304 102.156 28.096 101.999C28.3617 101.843 28.5941 101.634 28.7933 101.373L29.4496 101.894C29.3128 102.101 29.139 102.298 28.9281 102.486C28.7171 102.673 28.4574 102.826 28.1488 102.943C27.8441 103.06 27.4828 103.119 27.0648 103.119Z" fill="#333333"/>
</svg>
