<svg width="333" height="193" viewBox="0 0 333 193" fill="none" xmlns="http://www.w3.org/2000/svg">
<path d="M24.918 172.257H326.097" stroke="#CCCCCC" stroke-dasharray="4 2"/>
<path d="M24.918 130.32H326.097" stroke="#CCCCCC" stroke-dasharray="4 2"/>
<path d="M24.918 88.3831H326.097" stroke="#CCCCCC" stroke-dasharray="4 2"/>
<path d="M24.918 46.4463H326.097" stroke="#CCCCCC" stroke-dasharray="4 2"/>
<path d="M24.918 4.50922H326.097" stroke="#CCCCCC" stroke-dasharray="4 2"/>
<path d="M24.918 4.20865V172.557" stroke="#CCCCCC" stroke-dasharray="4 2"/>
<path d="M75.0732 4.20868V172.557" stroke="#CCCCCC" stroke-dasharray="4 2"/>
<path d="M125.228 4.20868V172.557" stroke="#CCCCCC" stroke-dasharray="4 2"/>
<path d="M175.381 4.20868V172.557" stroke="#CCCCCC" stroke-dasharray="4 2"/>
<path d="M225.54 4.20868V172.557" stroke="#CCCCCC" stroke-dasharray="4 2"/>
<path d="M275.694 4.20868V172.557" stroke="#CCCCCC" stroke-dasharray="4 2"/>
<path d="M325.869 4.20868V172.557" stroke="#CCCCCC" stroke-dasharray="4 2"/>
<path d="M19.7572 170.802V172.103C19.7572 172.802 19.6947 173.392 19.5697 173.873C19.4447 174.353 19.265 174.74 19.0306 175.033C18.7963 175.326 18.5131 175.539 18.181 175.672C17.8529 175.8 17.4818 175.865 17.0678 175.865C16.7396 175.865 16.4369 175.824 16.1596 175.742C15.8822 175.66 15.6322 175.529 15.4096 175.349C15.1908 175.166 15.0033 174.927 14.8471 174.634C14.6908 174.341 14.5717 173.986 14.4896 173.568C14.4076 173.15 14.3666 172.662 14.3666 172.103V170.802C14.3666 170.103 14.4291 169.517 14.5541 169.045C14.683 168.572 14.8646 168.193 15.099 167.908C15.3334 167.619 15.6146 167.412 15.9428 167.287C16.2748 167.162 16.6459 167.099 17.056 167.099C17.3881 167.099 17.6928 167.14 17.9701 167.222C18.2514 167.3 18.5014 167.427 18.7201 167.603C18.9389 167.775 19.1244 168.006 19.2767 168.295C19.433 168.58 19.5521 168.929 19.6342 169.343C19.7162 169.757 19.7572 170.244 19.7572 170.802ZM18.6674 172.279V170.621C18.6674 170.238 18.6439 169.902 18.5971 169.613C18.5541 169.32 18.4896 169.07 18.4037 168.863C18.3178 168.656 18.2084 168.488 18.0756 168.359C17.9467 168.23 17.7963 168.136 17.6244 168.078C17.4564 168.015 17.267 167.984 17.056 167.984C16.7982 167.984 16.5697 168.033 16.3705 168.131C16.1713 168.224 16.0033 168.375 15.8666 168.582C15.7338 168.789 15.6322 169.06 15.5619 169.396C15.4916 169.732 15.4564 170.14 15.4564 170.621V172.279C15.4564 172.662 15.4779 173 15.5209 173.293C15.5678 173.586 15.6361 173.84 15.726 174.054C15.8158 174.265 15.9252 174.439 16.0541 174.576C16.183 174.713 16.3314 174.814 16.4994 174.881C16.6713 174.943 16.8607 174.974 17.0678 174.974C17.3334 174.974 17.5658 174.924 17.765 174.822C17.9642 174.72 18.1303 174.562 18.2631 174.347C18.3998 174.129 18.5014 173.849 18.5678 173.509C18.6342 173.166 18.6674 172.756 18.6674 172.279Z" fill="#333333"/>
<path d="M13.2439 137.92V138.811H7.65993V138.032L10.4549 134.92C10.7986 134.537 11.0642 134.213 11.2517 133.948C11.4431 133.678 11.5759 133.438 11.6502 133.227C11.7283 133.012 11.7674 132.793 11.7674 132.571C11.7674 132.289 11.7088 132.035 11.5916 131.809C11.4783 131.578 11.3103 131.395 11.0877 131.258C10.865 131.121 10.5955 131.053 10.2791 131.053C9.90017 131.053 9.58376 131.127 9.32985 131.276C9.07985 131.42 8.89235 131.623 8.76735 131.885C8.64235 132.147 8.57985 132.448 8.57985 132.787H7.49587C7.49587 132.307 7.60134 131.867 7.81228 131.469C8.02321 131.071 8.33571 130.754 8.74978 130.52C9.16384 130.282 9.6736 130.162 10.2791 130.162C10.8181 130.162 11.2791 130.258 11.6619 130.45C12.0447 130.637 12.3377 130.903 12.5408 131.246C12.7478 131.586 12.8513 131.985 12.8513 132.442C12.8513 132.692 12.8084 132.946 12.7224 133.203C12.6404 133.457 12.5252 133.711 12.3767 133.965C12.2322 134.219 12.0623 134.469 11.867 134.715C11.6756 134.961 11.4705 135.203 11.2517 135.442L8.96657 137.92H13.2439ZM15.7752 134.75L14.908 134.528L15.3357 130.28H19.7127V131.282H16.2556L15.9978 133.602C16.1541 133.512 16.3513 133.428 16.5896 133.35C16.8318 133.272 17.1092 133.233 17.4217 133.233C17.8162 133.233 18.1697 133.301 18.4822 133.438C18.7947 133.571 19.0603 133.762 19.2791 134.012C19.5017 134.262 19.6717 134.563 19.7888 134.914C19.906 135.266 19.9646 135.659 19.9646 136.092C19.9646 136.502 19.908 136.879 19.7947 137.223C19.6853 137.567 19.5193 137.867 19.2967 138.125C19.074 138.379 18.7927 138.576 18.4529 138.717C18.117 138.858 17.7205 138.928 17.2634 138.928C16.9197 138.928 16.5935 138.881 16.2849 138.787C15.9802 138.69 15.7068 138.543 15.4646 138.348C15.2263 138.149 15.031 137.903 14.8787 137.61C14.7302 137.313 14.6365 136.965 14.5974 136.567H15.6287C15.6756 136.887 15.7693 137.157 15.9099 137.375C16.0506 137.594 16.2342 137.76 16.4607 137.873C16.6912 137.983 16.9588 138.037 17.2634 138.037C17.5213 138.037 17.7498 137.992 17.949 137.903C18.1482 137.813 18.3162 137.684 18.4529 137.516C18.5896 137.348 18.6931 137.145 18.7634 136.907C18.8377 136.668 18.8748 136.401 18.8748 136.104C18.8748 135.834 18.8377 135.584 18.7634 135.354C18.6892 135.123 18.5779 134.922 18.4295 134.75C18.2849 134.578 18.1072 134.446 17.8963 134.352C17.6853 134.254 17.4431 134.205 17.1697 134.205C16.8064 134.205 16.531 134.254 16.3435 134.352C16.1599 134.45 15.9705 134.582 15.7752 134.75Z" fill="#333333"/>
<path d="M9.02517 92.8132L8.15798 92.5905L8.58571 88.3425H12.9627V89.3444H9.50564L9.24782 91.6647C9.40407 91.5749 9.60134 91.4909 9.83962 91.4128C10.0818 91.3347 10.3592 91.2956 10.6717 91.2956C11.0662 91.2956 11.4197 91.364 11.7322 91.5007C12.0447 91.6335 12.3103 91.8249 12.5291 92.0749C12.7517 92.3249 12.9217 92.6257 13.0388 92.9772C13.156 93.3288 13.2146 93.7214 13.2146 94.155C13.2146 94.5651 13.158 94.9421 13.0447 95.2858C12.9353 95.6296 12.7693 95.9304 12.5467 96.1882C12.324 96.4421 12.0427 96.6393 11.7029 96.78C11.367 96.9206 10.9705 96.9909 10.5134 96.9909C10.1697 96.9909 9.84353 96.944 9.53493 96.8503C9.23024 96.7526 8.95681 96.6061 8.71462 96.4108C8.47634 96.2116 8.28103 95.9655 8.12868 95.6725C7.98024 95.3757 7.88649 95.028 7.84743 94.6296H8.87868C8.92556 94.9499 9.01931 95.2194 9.15993 95.4382C9.30056 95.6569 9.48415 95.8229 9.71071 95.9362C9.94118 96.0456 10.2088 96.1003 10.5134 96.1003C10.7713 96.1003 10.9998 96.0554 11.199 95.9655C11.3982 95.8757 11.5662 95.7468 11.7029 95.5788C11.8396 95.4108 11.9431 95.2077 12.0134 94.9694C12.0877 94.7311 12.1248 94.4636 12.1248 94.1667C12.1248 93.8972 12.0877 93.6472 12.0134 93.4167C11.9392 93.1862 11.8279 92.985 11.6795 92.8132C11.5349 92.6413 11.3572 92.5085 11.1463 92.4147C10.9353 92.3171 10.6931 92.2682 10.4197 92.2682C10.0564 92.2682 9.78103 92.3171 9.59353 92.4147C9.40993 92.5124 9.22048 92.6452 9.02517 92.8132ZM19.7595 91.9284V93.2292C19.7595 93.9284 19.697 94.5182 19.572 94.9987C19.447 95.4792 19.2674 95.8659 19.033 96.1589C18.7986 96.4518 18.5154 96.6647 18.1834 96.7975C17.8552 96.9265 17.4842 96.9909 17.0701 96.9909C16.742 96.9909 16.4392 96.9499 16.1619 96.8679C15.8845 96.7858 15.6345 96.655 15.4119 96.4753C15.1931 96.2917 15.0056 96.0534 14.8494 95.7604C14.6931 95.4675 14.574 95.112 14.492 94.694C14.4099 94.2761 14.3689 93.7878 14.3689 93.2292V91.9284C14.3689 91.2292 14.4314 90.6432 14.5564 90.1706C14.6853 89.6979 14.867 89.319 15.1013 89.0339C15.3357 88.7448 15.617 88.5378 15.9451 88.4128C16.2771 88.2878 16.6482 88.2253 17.0584 88.2253C17.3904 88.2253 17.6951 88.2663 17.9724 88.3483C18.2537 88.4265 18.5037 88.5534 18.7224 88.7292C18.9412 88.9011 19.1267 89.1315 19.2791 89.4206C19.4353 89.7057 19.5545 90.0554 19.6365 90.4694C19.7185 90.8835 19.7595 91.3698 19.7595 91.9284ZM18.6697 93.405V91.7468C18.6697 91.364 18.6463 91.028 18.5994 90.739C18.5564 90.446 18.492 90.196 18.406 89.989C18.3201 89.7819 18.2107 89.614 18.0779 89.485C17.949 89.3561 17.7986 89.2624 17.6267 89.2038C17.4588 89.1413 17.2693 89.11 17.0584 89.11C16.8006 89.11 16.572 89.1589 16.3728 89.2565C16.1736 89.3503 16.0056 89.5007 15.8689 89.7077C15.7361 89.9147 15.6345 90.1862 15.5642 90.5222C15.4939 90.8581 15.4588 91.2663 15.4588 91.7468V93.405C15.4588 93.7878 15.4802 94.1257 15.5232 94.4186C15.5701 94.7116 15.6384 94.9655 15.7283 95.1804C15.8181 95.3913 15.9275 95.5651 16.0564 95.7018C16.1853 95.8386 16.3338 95.9401 16.5017 96.0065C16.6736 96.069 16.8631 96.1003 17.0701 96.1003C17.3357 96.1003 17.5681 96.0495 17.7674 95.9479C17.9666 95.8464 18.1326 95.6882 18.2654 95.4733C18.4021 95.2546 18.5037 94.9753 18.5701 94.6354C18.6365 94.2917 18.6697 93.8815 18.6697 93.405Z" fill="#333333"/>
<path d="M13.1677 46.4056V47.015L9.63454 54.9369H8.49196L12.0193 47.2962H7.40212V46.4056H13.1677ZM15.7752 50.8763L14.908 50.6537L15.3357 46.4056H19.7127V47.4076H16.2556L15.9978 49.7279C16.1541 49.638 16.3513 49.554 16.5896 49.4759C16.8318 49.3978 17.1092 49.3587 17.4217 49.3587C17.8162 49.3587 18.1697 49.4271 18.4822 49.5638C18.7947 49.6966 19.0603 49.888 19.2791 50.138C19.5017 50.388 19.6717 50.6888 19.7888 51.0404C19.906 51.3919 19.9646 51.7845 19.9646 52.2181C19.9646 52.6283 19.908 53.0052 19.7947 53.349C19.6853 53.6927 19.5193 53.9935 19.2967 54.2513C19.074 54.5052 18.7927 54.7025 18.4529 54.8431C18.117 54.9837 17.7205 55.054 17.2634 55.054C16.9197 55.054 16.5935 55.0072 16.2849 54.9134C15.9802 54.8158 15.7068 54.6693 15.4646 54.474C15.2263 54.2747 15.031 54.0287 14.8787 53.7357C14.7302 53.4388 14.6365 53.0912 14.5974 52.6927H15.6287C15.6756 53.013 15.7693 53.2826 15.9099 53.5013C16.0506 53.7201 16.2342 53.8861 16.4607 53.9994C16.6912 54.1087 16.9588 54.1634 17.2634 54.1634C17.5213 54.1634 17.7498 54.1185 17.949 54.0287C18.1482 53.9388 18.3162 53.8099 18.4529 53.6419C18.5896 53.474 18.6931 53.2708 18.7634 53.0326C18.8377 52.7943 18.8748 52.5267 18.8748 52.2298C18.8748 51.9603 18.8377 51.7103 18.7634 51.4798C18.6892 51.2494 18.5779 51.0482 18.4295 50.8763C18.2849 50.7044 18.1072 50.5716 17.8963 50.4779C17.6853 50.3802 17.4431 50.3314 17.1697 50.3314C16.8064 50.3314 16.531 50.3802 16.3435 50.4779C16.1599 50.5755 15.9705 50.7083 15.7752 50.8763Z" fill="#333333"/>
<path d="M4.46597 4.42188V13H3.38199V5.77539L1.19644 6.57227V5.59375L4.29605 4.42188H4.46597ZM13.0089 8.05469V9.35547C13.0089 10.0547 12.9464 10.6445 12.8214 11.125C12.6964 11.6055 12.5168 11.9922 12.2824 12.2852C12.048 12.5781 11.7648 12.791 11.4328 12.9238C11.1046 13.0527 10.7336 13.1172 10.3195 13.1172C9.99136 13.1172 9.68863 13.0762 9.41129 12.9941C9.13394 12.9121 8.88394 12.7812 8.66129 12.6016C8.44254 12.418 8.25504 12.1797 8.09879 11.8867C7.94254 11.5938 7.82339 11.2383 7.74136 10.8203C7.65933 10.4023 7.61832 9.91406 7.61832 9.35547V8.05469C7.61832 7.35547 7.68082 6.76953 7.80582 6.29688C7.93472 5.82422 8.11636 5.44531 8.35074 5.16016C8.58511 4.87109 8.86636 4.66406 9.19449 4.53906C9.52652 4.41406 9.89761 4.35156 10.3078 4.35156C10.6398 4.35156 10.9445 4.39258 11.2218 4.47461C11.5031 4.55273 11.7531 4.67969 11.9718 4.85547C12.1906 5.02734 12.3761 5.25781 12.5285 5.54688C12.6847 5.83203 12.8039 6.18164 12.8859 6.5957C12.9679 7.00977 13.0089 7.49609 13.0089 8.05469ZM11.9191 9.53125V7.87305C11.9191 7.49023 11.8957 7.1543 11.8488 6.86523C11.8058 6.57227 11.7414 6.32227 11.6554 6.11523C11.5695 5.9082 11.4601 5.74023 11.3273 5.61133C11.1984 5.48242 11.048 5.38867 10.8761 5.33008C10.7082 5.26758 10.5187 5.23633 10.3078 5.23633C10.05 5.23633 9.82144 5.28516 9.62222 5.38281C9.423 5.47656 9.25504 5.62695 9.11832 5.83398C8.9855 6.04102 8.88394 6.3125 8.81363 6.64844C8.74332 6.98438 8.70816 7.39258 8.70816 7.87305V9.53125C8.70816 9.91406 8.72964 10.252 8.77261 10.5449C8.81949 10.8379 8.88785 11.0918 8.97769 11.3066C9.06754 11.5176 9.17691 11.6914 9.30582 11.8281C9.43472 11.9648 9.58316 12.0664 9.75113 12.1328C9.923 12.1953 10.1125 12.2266 10.3195 12.2266C10.5851 12.2266 10.8175 12.1758 11.0168 12.0742C11.216 11.9727 11.382 11.8145 11.5148 11.5996C11.6515 11.3809 11.7531 11.1016 11.8195 10.7617C11.8859 10.418 11.9191 10.0078 11.9191 9.53125ZM19.7589 8.05469V9.35547C19.7589 10.0547 19.6964 10.6445 19.5714 11.125C19.4464 11.6055 19.2668 11.9922 19.0324 12.2852C18.798 12.5781 18.5148 12.791 18.1828 12.9238C17.8546 13.0527 17.4836 13.1172 17.0695 13.1172C16.7414 13.1172 16.4386 13.0762 16.1613 12.9941C15.8839 12.9121 15.6339 12.7812 15.4113 12.6016C15.1925 12.418 15.005 12.1797 14.8488 11.8867C14.6925 11.5938 14.5734 11.2383 14.4914 10.8203C14.4093 10.4023 14.3683 9.91406 14.3683 9.35547V8.05469C14.3683 7.35547 14.4308 6.76953 14.5558 6.29688C14.6847 5.82422 14.8664 5.44531 15.1007 5.16016C15.3351 4.87109 15.6164 4.66406 15.9445 4.53906C16.2765 4.41406 16.6476 4.35156 17.0578 4.35156C17.3898 4.35156 17.6945 4.39258 17.9718 4.47461C18.2531 4.55273 18.5031 4.67969 18.7218 4.85547C18.9406 5.02734 19.1261 5.25781 19.2785 5.54688C19.4347 5.83203 19.5539 6.18164 19.6359 6.5957C19.7179 7.00977 19.7589 7.49609 19.7589 8.05469ZM18.6691 9.53125V7.87305C18.6691 7.49023 18.6457 7.1543 18.5988 6.86523C18.5558 6.57227 18.4914 6.32227 18.4054 6.11523C18.3195 5.9082 18.2101 5.74023 18.0773 5.61133C17.9484 5.48242 17.798 5.38867 17.6261 5.33008C17.4582 5.26758 17.2687 5.23633 17.0578 5.23633C16.8 5.23633 16.5714 5.28516 16.3722 5.38281C16.173 5.47656 16.005 5.62695 15.8683 5.83398C15.7355 6.04102 15.6339 6.3125 15.5636 6.64844C15.4933 6.98438 15.4582 7.39258 15.4582 7.87305V9.53125C15.4582 9.91406 15.4796 10.252 15.5226 10.5449C15.5695 10.8379 15.6378 11.0918 15.7277 11.3066C15.8175 11.5176 15.9269 11.6914 16.0558 11.8281C16.1847 11.9648 16.3332 12.0664 16.5011 12.1328C16.673 12.1953 16.8625 12.2266 17.0695 12.2266C17.3351 12.2266 17.5675 12.1758 17.7668 12.0742C17.966 11.9727 18.132 11.8145 18.2648 11.5996C18.4015 11.3809 18.5031 11.1016 18.5695 10.7617C18.6359 10.418 18.6691 10.0078 18.6691 9.53125Z" fill="#333333"/>
<path d="M13.778 181.587V190.165H12.694V182.94L10.5085 183.737V182.759L13.6081 181.587H13.778ZM22.5554 189.274V190.165H16.9714V189.386L19.7663 186.274C20.1101 185.892 20.3757 185.567 20.5632 185.302C20.7546 185.032 20.8874 184.792 20.9616 184.581C21.0397 184.366 21.0788 184.147 21.0788 183.925C21.0788 183.644 21.0202 183.39 20.903 183.163C20.7897 182.933 20.6218 182.749 20.3991 182.612C20.1765 182.476 19.9069 182.407 19.5905 182.407C19.2116 182.407 18.8952 182.481 18.6413 182.63C18.3913 182.774 18.2038 182.978 18.0788 183.239C17.9538 183.501 17.8913 183.802 17.8913 184.142H16.8073C16.8073 183.661 16.9128 183.222 17.1237 182.823C17.3347 182.425 17.6472 182.108 18.0612 181.874C18.4753 181.636 18.9851 181.517 19.5905 181.517C20.1296 181.517 20.5905 181.612 20.9733 181.804C21.3562 181.991 21.6491 182.257 21.8522 182.601C22.0593 182.94 22.1628 183.339 22.1628 183.796C22.1628 184.046 22.1198 184.3 22.0339 184.558C21.9519 184.812 21.8366 185.065 21.6882 185.319C21.5437 185.573 21.3737 185.823 21.1784 186.069C20.987 186.315 20.7819 186.558 20.5632 186.796L18.278 189.274H22.5554ZM23.8503 189.591C23.8503 189.407 23.9069 189.253 24.0202 189.128C24.1374 188.999 24.3054 188.935 24.5241 188.935C24.7429 188.935 24.9089 188.999 25.0222 189.128C25.1394 189.253 25.198 189.407 25.198 189.591C25.198 189.771 25.1394 189.923 25.0222 190.048C24.9089 190.173 24.7429 190.235 24.5241 190.235C24.3054 190.235 24.1374 190.173 24.0202 190.048C23.9069 189.923 23.8503 189.771 23.8503 189.591ZM32.2351 185.22V186.521C32.2351 187.22 32.1726 187.81 32.0476 188.29C31.9226 188.771 31.7429 189.157 31.5085 189.45C31.2741 189.743 30.9909 189.956 30.6589 190.089C30.3308 190.218 29.9597 190.282 29.5456 190.282C29.2175 190.282 28.9147 190.241 28.6374 190.159C28.3601 190.077 28.1101 189.946 27.8874 189.767C27.6687 189.583 27.4812 189.345 27.3249 189.052C27.1687 188.759 27.0495 188.403 26.9675 187.985C26.8855 187.567 26.8444 187.079 26.8444 186.521V185.22C26.8444 184.521 26.9069 183.935 27.0319 183.462C27.1608 182.989 27.3425 182.61 27.5769 182.325C27.8112 182.036 28.0925 181.829 28.4206 181.704C28.7526 181.579 29.1237 181.517 29.5339 181.517C29.8659 181.517 30.1706 181.558 30.448 181.64C30.7292 181.718 30.9792 181.845 31.198 182.021C31.4167 182.192 31.6022 182.423 31.7546 182.712C31.9108 182.997 32.03 183.347 32.112 183.761C32.194 184.175 32.2351 184.661 32.2351 185.22ZM31.1452 186.696V185.038C31.1452 184.655 31.1218 184.319 31.0749 184.03C31.0319 183.737 30.9675 183.487 30.8815 183.28C30.7956 183.073 30.6862 182.905 30.5534 182.776C30.4245 182.647 30.2741 182.554 30.1022 182.495C29.9343 182.433 29.7448 182.401 29.5339 182.401C29.2761 182.401 29.0476 182.45 28.8483 182.548C28.6491 182.642 28.4812 182.792 28.3444 182.999C28.2116 183.206 28.1101 183.478 28.0397 183.813C27.9694 184.149 27.9343 184.558 27.9343 185.038V186.696C27.9343 187.079 27.9558 187.417 27.9987 187.71C28.0456 188.003 28.114 188.257 28.2038 188.472C28.2937 188.683 28.403 188.856 28.5319 188.993C28.6608 189.13 28.8093 189.231 28.9772 189.298C29.1491 189.36 29.3386 189.392 29.5456 189.392C29.8112 189.392 30.0437 189.341 30.2429 189.239C30.4421 189.138 30.6081 188.979 30.7409 188.765C30.8776 188.546 30.9792 188.267 31.0456 187.927C31.112 187.583 31.1452 187.173 31.1452 186.696ZM37.7897 181.622H37.8835V182.542H37.7897C37.2155 182.542 36.7351 182.636 36.3483 182.823C35.9616 183.007 35.655 183.255 35.4284 183.567C35.2019 183.876 35.0378 184.224 34.9362 184.61C34.8386 184.997 34.7897 185.39 34.7897 185.788V187.042C34.7897 187.421 34.8347 187.757 34.9245 188.05C35.0144 188.339 35.1374 188.583 35.2937 188.782C35.4499 188.981 35.6257 189.132 35.821 189.233C36.0202 189.335 36.2272 189.386 36.4421 189.386C36.6921 189.386 36.9147 189.339 37.1101 189.245C37.3054 189.147 37.4694 189.013 37.6022 188.841C37.739 188.665 37.8425 188.458 37.9128 188.22C37.9831 187.981 38.0183 187.72 38.0183 187.435C38.0183 187.181 37.987 186.937 37.9245 186.702C37.862 186.464 37.7663 186.253 37.6374 186.069C37.5085 185.882 37.3464 185.735 37.1511 185.63C36.9597 185.521 36.7312 185.466 36.4655 185.466C36.1647 185.466 35.8835 185.54 35.6218 185.688C35.364 185.833 35.1511 186.024 34.9831 186.263C34.819 186.497 34.7253 186.753 34.7019 187.03L34.1276 187.024C34.1823 186.587 34.2839 186.214 34.4323 185.905C34.5847 185.593 34.7722 185.339 34.9948 185.144C35.2214 184.944 35.4733 184.8 35.7507 184.71C36.0319 184.616 36.3288 184.569 36.6413 184.569C37.0671 184.569 37.4343 184.649 37.7429 184.81C38.0515 184.97 38.3054 185.185 38.5046 185.454C38.7038 185.72 38.8503 186.021 38.944 186.356C39.0417 186.688 39.0905 187.03 39.0905 187.382C39.0905 187.784 39.0339 188.161 38.9206 188.513C38.8073 188.864 38.6374 189.173 38.4108 189.438C38.1882 189.704 37.9128 189.911 37.5847 190.06C37.2565 190.208 36.8757 190.282 36.4421 190.282C35.9812 190.282 35.5788 190.188 35.2351 190.001C34.8913 189.81 34.6062 189.556 34.3796 189.239C34.153 188.923 33.9831 188.571 33.8698 188.185C33.7565 187.798 33.6999 187.405 33.6999 187.007V186.497C33.6999 185.896 33.7605 185.306 33.8815 184.728C34.0026 184.149 34.2116 183.626 34.5085 183.157C34.8093 182.688 35.2253 182.315 35.7565 182.038C36.2878 181.761 36.9655 181.622 37.7897 181.622Z" fill="#333333"/>
<path d="M62.0548 181.587V190.165H60.9708V182.94L58.7853 183.737V182.759L61.8849 181.587H62.0548ZM70.6212 187.856C70.6212 188.376 70.5001 188.817 70.2579 189.181C70.0196 189.54 69.6954 189.813 69.2853 190.001C68.879 190.188 68.42 190.282 67.9083 190.282C67.3966 190.282 66.9357 190.188 66.5255 190.001C66.1153 189.813 65.7911 189.54 65.5528 189.181C65.3146 188.817 65.1954 188.376 65.1954 187.856C65.1954 187.517 65.2599 187.206 65.3888 186.925C65.5216 186.64 65.7071 186.392 65.9454 186.181C66.1876 185.97 66.4728 185.808 66.8009 185.694C67.1329 185.577 67.4982 185.519 67.8966 185.519C68.42 185.519 68.8868 185.62 69.297 185.823C69.7071 186.022 70.0294 186.298 70.2638 186.649C70.5021 187.001 70.6212 187.403 70.6212 187.856ZM69.5314 187.833C69.5314 187.517 69.463 187.237 69.3263 186.995C69.1896 186.749 68.9982 186.558 68.7521 186.421C68.506 186.284 68.2208 186.216 67.8966 186.216C67.5646 186.216 67.2775 186.284 67.0353 186.421C66.797 186.558 66.6114 186.749 66.4786 186.995C66.3458 187.237 66.2794 187.517 66.2794 187.833C66.2794 188.161 66.3439 188.442 66.4728 188.677C66.6056 188.907 66.7931 189.085 67.0353 189.21C67.2814 189.331 67.5724 189.392 67.9083 189.392C68.2442 189.392 68.5333 189.331 68.7755 189.21C69.0177 189.085 69.2032 188.907 69.3321 188.677C69.465 188.442 69.5314 188.161 69.5314 187.833ZM70.422 183.854C70.422 184.269 70.3126 184.642 70.0939 184.974C69.8751 185.306 69.5763 185.567 69.1974 185.759C68.8185 185.95 68.3888 186.046 67.9083 186.046C67.42 186.046 66.9845 185.95 66.6017 185.759C66.2228 185.567 65.9259 185.306 65.711 184.974C65.4962 184.642 65.3888 184.269 65.3888 183.854C65.3888 183.358 65.4962 182.937 65.711 182.589C65.9298 182.241 66.2286 181.976 66.6075 181.792C66.9864 181.608 67.4181 181.517 67.9025 181.517C68.3907 181.517 68.8243 181.608 69.2032 181.792C69.5821 181.976 69.879 182.241 70.0939 182.589C70.3126 182.937 70.422 183.358 70.422 183.854ZM69.338 183.872C69.338 183.587 69.2775 183.335 69.1564 183.116C69.0353 182.897 68.8673 182.726 68.6525 182.601C68.4376 182.472 68.1876 182.407 67.9025 182.407C67.6173 182.407 67.3673 182.468 67.1525 182.589C66.9415 182.706 66.7755 182.874 66.6544 183.093C66.5372 183.312 66.4786 183.571 66.4786 183.872C66.4786 184.165 66.5372 184.421 66.6544 184.64C66.7755 184.858 66.9435 185.028 67.1583 185.149C67.3732 185.27 67.6232 185.331 67.9083 185.331C68.1935 185.331 68.4415 185.27 68.6525 185.149C68.8673 185.028 69.0353 184.858 69.1564 184.64C69.2775 184.421 69.338 184.165 69.338 183.872ZM72.1271 189.591C72.1271 189.407 72.1837 189.253 72.297 189.128C72.4142 188.999 72.5821 188.935 72.8009 188.935C73.0196 188.935 73.1857 188.999 73.2989 189.128C73.4161 189.253 73.4747 189.407 73.4747 189.591C73.4747 189.77 73.4161 189.923 73.2989 190.048C73.1857 190.173 73.0196 190.235 72.8009 190.235C72.5821 190.235 72.4142 190.173 72.297 190.048C72.1837 189.923 72.1271 189.77 72.1271 189.591ZM80.5118 185.22V186.52C80.5118 187.22 80.4493 187.81 80.3243 188.29C80.1993 188.77 80.0196 189.157 79.7853 189.45C79.5509 189.743 79.2677 189.956 78.9357 190.089C78.6075 190.218 78.2364 190.282 77.8224 190.282C77.4942 190.282 77.1915 190.241 76.9142 190.159C76.6368 190.077 76.3868 189.946 76.1642 189.767C75.9454 189.583 75.7579 189.345 75.6017 189.052C75.4454 188.759 75.3263 188.403 75.2442 187.985C75.1622 187.567 75.1212 187.079 75.1212 186.52V185.22C75.1212 184.52 75.1837 183.935 75.3087 183.462C75.4376 182.989 75.6192 182.61 75.8536 182.325C76.088 182.036 76.3692 181.829 76.6974 181.704C77.0294 181.579 77.4005 181.517 77.8107 181.517C78.1427 181.517 78.4474 181.558 78.7247 181.64C79.006 181.718 79.256 181.845 79.4747 182.02C79.6935 182.192 79.879 182.423 80.0314 182.712C80.1876 182.997 80.3067 183.347 80.3888 183.761C80.4708 184.175 80.5118 184.661 80.5118 185.22ZM79.422 186.696V185.038C79.422 184.655 79.3985 184.319 79.3517 184.03C79.3087 183.737 79.2442 183.487 79.1583 183.28C79.0724 183.073 78.963 182.905 78.8302 182.776C78.7013 182.647 78.5509 182.554 78.379 182.495C78.211 182.433 78.0216 182.401 77.8107 182.401C77.5528 182.401 77.3243 182.45 77.1251 182.548C76.9259 182.642 76.7579 182.792 76.6212 182.999C76.4884 183.206 76.3868 183.478 76.3165 183.813C76.2462 184.149 76.211 184.558 76.211 185.038V186.696C76.211 187.079 76.2325 187.417 76.2755 187.71C76.3224 188.003 76.3907 188.257 76.4806 188.472C76.5704 188.683 76.6798 188.856 76.8087 188.993C76.9376 189.13 77.086 189.231 77.254 189.298C77.4259 189.36 77.6153 189.392 77.8224 189.392C78.088 189.392 78.3204 189.341 78.5196 189.239C78.7189 189.138 78.8849 188.979 79.0177 188.765C79.1544 188.546 79.256 188.267 79.3224 187.927C79.3888 187.583 79.422 187.173 79.422 186.696ZM86.0665 181.622H86.1603V182.542H86.0665C85.4923 182.542 85.0118 182.636 84.6251 182.823C84.2384 183.007 83.9317 183.255 83.7052 183.567C83.4786 183.876 83.3146 184.224 83.213 184.61C83.1153 184.997 83.0665 185.39 83.0665 185.788V187.042C83.0665 187.421 83.1114 187.757 83.2013 188.05C83.2911 188.339 83.4142 188.583 83.5704 188.782C83.7267 188.981 83.9025 189.132 84.0978 189.233C84.297 189.335 84.504 189.386 84.7189 189.386C84.9689 189.386 85.1915 189.339 85.3868 189.245C85.5821 189.147 85.7462 189.013 85.879 188.841C86.0157 188.665 86.1192 188.458 86.1896 188.22C86.2599 187.981 86.295 187.72 86.295 187.435C86.295 187.181 86.2638 186.937 86.2013 186.702C86.1388 186.464 86.0431 186.253 85.9142 186.069C85.7853 185.882 85.6232 185.735 85.4278 185.63C85.2364 185.52 85.0079 185.466 84.7423 185.466C84.4415 185.466 84.1603 185.54 83.8985 185.688C83.6407 185.833 83.4278 186.024 83.2599 186.263C83.0958 186.497 83.0021 186.753 82.9786 187.03L82.4044 187.024C82.4591 186.587 82.5607 186.214 82.7091 185.905C82.8614 185.593 83.0489 185.339 83.2716 185.144C83.4982 184.944 83.7501 184.8 84.0275 184.71C84.3087 184.616 84.6056 184.569 84.9181 184.569C85.3439 184.569 85.711 184.649 86.0196 184.81C86.3282 184.97 86.5821 185.185 86.7814 185.454C86.9806 185.72 87.1271 186.02 87.2208 186.356C87.3185 186.688 87.3673 187.03 87.3673 187.382C87.3673 187.784 87.3107 188.161 87.1974 188.513C87.0841 188.864 86.9142 189.173 86.6876 189.438C86.465 189.704 86.1896 189.911 85.8614 190.06C85.5333 190.208 85.1525 190.282 84.7189 190.282C84.2579 190.282 83.8556 190.188 83.5118 190.001C83.1681 189.81 82.8829 189.556 82.6564 189.239C82.4298 188.923 82.2599 188.571 82.1466 188.185C82.0333 187.798 81.9767 187.405 81.9767 187.007V186.497C81.9767 185.895 82.0372 185.306 82.1583 184.728C82.2794 184.149 82.4884 183.626 82.7853 183.157C83.086 182.688 83.5021 182.315 84.0333 182.038C84.5646 181.761 85.2423 181.622 86.0665 181.622Z" fill="#333333"/>
<path d="M111.656 185.22V186.521C111.656 187.22 111.593 187.81 111.468 188.29C111.343 188.771 111.164 189.157 110.929 189.45C110.695 189.743 110.412 189.956 110.08 190.089C109.752 190.218 109.381 190.282 108.966 190.282C108.638 190.282 108.336 190.241 108.058 190.159C107.781 190.077 107.531 189.946 107.308 189.767C107.089 189.583 106.902 189.345 106.746 189.052C106.589 188.759 106.47 188.403 106.388 187.985C106.306 187.567 106.265 187.079 106.265 186.521V185.22C106.265 184.521 106.328 183.935 106.453 183.462C106.582 182.989 106.763 182.61 106.998 182.325C107.232 182.036 107.513 181.829 107.841 181.704C108.173 181.579 108.545 181.517 108.955 181.517C109.287 181.517 109.591 181.558 109.869 181.64C110.15 181.718 110.4 181.845 110.619 182.021C110.838 182.192 111.023 182.423 111.175 182.712C111.332 182.997 111.451 183.347 111.533 183.761C111.615 184.175 111.656 184.661 111.656 185.22ZM110.566 186.696V185.038C110.566 184.655 110.543 184.319 110.496 184.03C110.453 183.737 110.388 183.487 110.302 183.28C110.216 183.073 110.107 182.905 109.974 182.776C109.845 182.647 109.695 182.554 109.523 182.495C109.355 182.433 109.166 182.401 108.955 182.401C108.697 182.401 108.468 182.45 108.269 182.548C108.07 182.642 107.902 182.792 107.765 182.999C107.632 183.206 107.531 183.478 107.461 183.813C107.39 184.149 107.355 184.558 107.355 185.038V186.696C107.355 187.079 107.377 187.417 107.42 187.71C107.466 188.003 107.535 188.257 107.625 188.472C107.714 188.683 107.824 188.856 107.953 188.993C108.082 189.13 108.23 189.231 108.398 189.298C108.57 189.36 108.759 189.392 108.966 189.392C109.232 189.392 109.464 189.341 109.664 189.239C109.863 189.138 110.029 188.979 110.162 188.765C110.298 188.546 110.4 188.267 110.466 187.927C110.533 187.583 110.566 187.173 110.566 186.696ZM114.632 185.366H115.406C115.785 185.366 116.097 185.304 116.343 185.179C116.593 185.05 116.779 184.876 116.9 184.657C117.025 184.435 117.088 184.185 117.088 183.907C117.088 183.579 117.033 183.304 116.923 183.081C116.814 182.858 116.65 182.69 116.431 182.577C116.213 182.464 115.935 182.407 115.599 182.407C115.295 182.407 115.025 182.468 114.791 182.589C114.56 182.706 114.379 182.874 114.246 183.093C114.117 183.312 114.052 183.569 114.052 183.866H112.968C112.968 183.433 113.078 183.038 113.297 182.683C113.515 182.327 113.822 182.044 114.216 181.833C114.615 181.622 115.076 181.517 115.599 181.517C116.115 181.517 116.566 181.608 116.953 181.792C117.339 181.972 117.64 182.241 117.855 182.601C118.07 182.956 118.177 183.399 118.177 183.931C118.177 184.146 118.127 184.376 118.025 184.622C117.927 184.864 117.773 185.091 117.562 185.302C117.355 185.513 117.086 185.687 116.754 185.823C116.422 185.956 116.023 186.022 115.558 186.022H114.632V185.366ZM114.632 186.257V185.606H115.558C116.101 185.606 116.55 185.671 116.906 185.8C117.261 185.929 117.541 186.101 117.744 186.315C117.951 186.53 118.095 186.767 118.177 187.024C118.263 187.278 118.306 187.532 118.306 187.786C118.306 188.185 118.238 188.538 118.101 188.847C117.968 189.155 117.779 189.417 117.533 189.632C117.291 189.847 117.006 190.009 116.677 190.118C116.349 190.228 115.992 190.282 115.605 190.282C115.234 190.282 114.884 190.229 114.556 190.124C114.232 190.019 113.945 189.866 113.695 189.667C113.445 189.464 113.25 189.216 113.109 188.923C112.968 188.626 112.898 188.288 112.898 187.909H113.982C113.982 188.206 114.047 188.466 114.175 188.688C114.308 188.911 114.496 189.085 114.738 189.21C114.984 189.331 115.273 189.392 115.605 189.392C115.937 189.392 116.222 189.335 116.461 189.222C116.703 189.104 116.888 188.929 117.017 188.694C117.15 188.46 117.216 188.165 117.216 187.81C117.216 187.454 117.142 187.163 116.994 186.937C116.845 186.706 116.634 186.536 116.361 186.427C116.091 186.313 115.773 186.257 115.406 186.257H114.632ZM119.935 189.591C119.935 189.407 119.992 189.253 120.105 189.128C120.222 188.999 120.39 188.935 120.609 188.935C120.828 188.935 120.994 188.999 121.107 189.128C121.224 189.253 121.283 189.407 121.283 189.591C121.283 189.771 121.224 189.923 121.107 190.048C120.994 190.173 120.828 190.235 120.609 190.235C120.39 190.235 120.222 190.173 120.105 190.048C119.992 189.923 119.935 189.771 119.935 189.591ZM128.32 185.22V186.521C128.32 187.22 128.257 187.81 128.132 188.29C128.007 188.771 127.828 189.157 127.593 189.45C127.359 189.743 127.076 189.956 126.744 190.089C126.416 190.218 126.045 190.282 125.631 190.282C125.302 190.282 125 190.241 124.722 190.159C124.445 190.077 124.195 189.946 123.972 189.767C123.754 189.583 123.566 189.345 123.41 189.052C123.254 188.759 123.134 188.403 123.052 187.985C122.97 187.567 122.929 187.079 122.929 186.521V185.22C122.929 184.521 122.992 183.935 123.117 183.462C123.246 182.989 123.427 182.61 123.662 182.325C123.896 182.036 124.177 181.829 124.506 181.704C124.838 181.579 125.209 181.517 125.619 181.517C125.951 181.517 126.256 181.558 126.533 181.64C126.814 181.718 127.064 181.845 127.283 182.021C127.502 182.192 127.687 182.423 127.839 182.712C127.996 182.997 128.115 183.347 128.197 183.761C128.279 184.175 128.32 184.661 128.32 185.22ZM127.23 186.696V185.038C127.23 184.655 127.207 184.319 127.16 184.03C127.117 183.737 127.052 183.487 126.966 183.28C126.881 183.073 126.771 182.905 126.638 182.776C126.509 182.647 126.359 182.554 126.187 182.495C126.019 182.433 125.83 182.401 125.619 182.401C125.361 182.401 125.132 182.45 124.933 182.548C124.734 182.642 124.566 182.792 124.429 182.999C124.297 183.206 124.195 183.478 124.125 183.813C124.054 184.149 124.019 184.558 124.019 185.038V186.696C124.019 187.079 124.041 187.417 124.084 187.71C124.131 188.003 124.199 188.257 124.289 188.472C124.379 188.683 124.488 188.856 124.617 188.993C124.746 189.13 124.894 189.231 125.062 189.298C125.234 189.36 125.423 189.392 125.631 189.392C125.896 189.392 126.129 189.341 126.328 189.239C126.527 189.138 126.693 188.979 126.826 188.765C126.963 188.546 127.064 188.267 127.131 187.927C127.197 187.583 127.23 187.173 127.23 186.696ZM135.228 181.634V182.243L131.695 190.165H130.552L134.08 182.524H129.463V181.634H135.228Z" fill="#333333"/>
<path d="M158.374 181.587V190.165H157.29V182.94L155.105 183.737V182.759L158.204 181.587H158.374ZM163.144 185.366H163.917C164.296 185.366 164.609 185.304 164.855 185.179C165.105 185.05 165.29 184.876 165.411 184.657C165.536 184.435 165.599 184.185 165.599 183.907C165.599 183.579 165.544 183.304 165.435 183.081C165.325 182.858 165.161 182.69 164.943 182.577C164.724 182.464 164.446 182.407 164.11 182.407C163.806 182.407 163.536 182.468 163.302 182.589C163.071 182.706 162.89 182.874 162.757 183.093C162.628 183.312 162.564 183.569 162.564 183.866H161.48C161.48 183.433 161.589 183.038 161.808 182.683C162.026 182.327 162.333 182.044 162.728 181.833C163.126 181.622 163.587 181.517 164.11 181.517C164.626 181.517 165.077 181.608 165.464 181.792C165.851 181.972 166.151 182.241 166.366 182.601C166.581 182.956 166.689 183.399 166.689 183.931C166.689 184.145 166.638 184.376 166.536 184.622C166.439 184.864 166.284 185.091 166.073 185.302C165.866 185.513 165.597 185.687 165.265 185.823C164.933 185.956 164.534 186.022 164.069 186.022H163.144V185.366ZM163.144 186.257V185.606H164.069C164.612 185.606 165.062 185.671 165.417 185.8C165.773 185.929 166.052 186.101 166.255 186.315C166.462 186.53 166.607 186.767 166.689 187.024C166.775 187.278 166.818 187.532 166.818 187.786C166.818 188.185 166.749 188.538 166.612 188.847C166.48 189.155 166.29 189.417 166.044 189.632C165.802 189.847 165.517 190.009 165.189 190.118C164.86 190.228 164.503 190.282 164.116 190.282C163.745 190.282 163.396 190.229 163.068 190.124C162.743 190.019 162.456 189.866 162.206 189.667C161.956 189.464 161.761 189.216 161.62 188.923C161.48 188.626 161.409 188.288 161.409 187.909H162.493C162.493 188.206 162.558 188.466 162.687 188.688C162.819 188.911 163.007 189.085 163.249 189.21C163.495 189.331 163.784 189.392 164.116 189.392C164.448 189.392 164.734 189.335 164.972 189.222C165.214 189.104 165.4 188.929 165.528 188.694C165.661 188.46 165.728 188.165 165.728 187.81C165.728 187.454 165.653 187.163 165.505 186.937C165.357 186.706 165.146 186.536 164.872 186.427C164.603 186.313 164.284 186.257 163.917 186.257H163.144ZM168.446 189.591C168.446 189.407 168.503 189.253 168.616 189.128C168.734 188.999 168.901 188.935 169.12 188.935C169.339 188.935 169.505 188.999 169.618 189.128C169.735 189.253 169.794 189.407 169.794 189.591C169.794 189.77 169.735 189.923 169.618 190.048C169.505 190.173 169.339 190.235 169.12 190.235C168.901 190.235 168.734 190.173 168.616 190.048C168.503 189.923 168.446 189.77 168.446 189.591ZM176.831 185.22V186.52C176.831 187.22 176.769 187.81 176.644 188.29C176.519 188.77 176.339 189.157 176.105 189.45C175.87 189.743 175.587 189.956 175.255 190.089C174.927 190.218 174.556 190.282 174.142 190.282C173.814 190.282 173.511 190.241 173.234 190.159C172.956 190.077 172.706 189.946 172.484 189.767C172.265 189.583 172.077 189.345 171.921 189.052C171.765 188.759 171.646 188.403 171.564 187.985C171.482 187.567 171.441 187.079 171.441 186.52V185.22C171.441 184.52 171.503 183.935 171.628 183.462C171.757 182.989 171.939 182.61 172.173 182.325C172.407 182.036 172.689 181.829 173.017 181.704C173.349 181.579 173.72 181.517 174.13 181.517C174.462 181.517 174.767 181.558 175.044 181.64C175.325 181.718 175.575 181.845 175.794 182.02C176.013 182.192 176.198 182.423 176.351 182.712C176.507 182.997 176.626 183.347 176.708 183.761C176.79 184.175 176.831 184.661 176.831 185.22ZM175.741 186.696V185.038C175.741 184.655 175.718 184.319 175.671 184.03C175.628 183.737 175.564 183.487 175.478 183.28C175.392 183.073 175.282 182.905 175.15 182.776C175.021 182.647 174.87 182.554 174.698 182.495C174.53 182.433 174.341 182.401 174.13 182.401C173.872 182.401 173.644 182.45 173.444 182.548C173.245 182.642 173.077 182.792 172.941 182.999C172.808 183.206 172.706 183.478 172.636 183.813C172.566 184.149 172.53 184.558 172.53 185.038V186.696C172.53 187.079 172.552 187.417 172.595 187.71C172.642 188.003 172.71 188.257 172.8 188.472C172.89 188.683 172.999 188.856 173.128 188.993C173.257 189.13 173.405 189.231 173.573 189.298C173.745 189.36 173.935 189.392 174.142 189.392C174.407 189.392 174.64 189.341 174.839 189.239C175.038 189.138 175.204 188.979 175.337 188.765C175.474 188.546 175.575 188.267 175.642 187.927C175.708 187.583 175.741 187.173 175.741 186.696ZM183.739 181.634V182.243L180.206 190.165H179.064L182.591 182.524H177.974V181.634H183.739Z" fill="#333333"/>
<path d="M206.651 181.587V190.165H205.567V182.94L203.382 183.737V182.759L206.481 181.587H206.651ZM215.604 187.294V188.185H209.44V187.546L213.26 181.634H214.145L213.196 183.345L210.671 187.294H215.604ZM214.415 181.634V190.165H213.331V181.634H214.415ZM216.723 189.591C216.723 189.407 216.78 189.253 216.893 189.128C217.01 188.999 217.178 188.935 217.397 188.935C217.616 188.935 217.782 188.999 217.895 189.128C218.012 189.253 218.071 189.407 218.071 189.591C218.071 189.77 218.012 189.923 217.895 190.048C217.782 190.173 217.616 190.235 217.397 190.235C217.178 190.235 217.01 190.173 216.893 190.048C216.78 189.923 216.723 189.77 216.723 189.591ZM225.108 185.22V186.52C225.108 187.22 225.046 187.81 224.921 188.29C224.796 188.77 224.616 189.157 224.382 189.45C224.147 189.743 223.864 189.956 223.532 190.089C223.204 190.218 222.833 190.282 222.419 190.282C222.09 190.282 221.788 190.241 221.51 190.159C221.233 190.077 220.983 189.946 220.76 189.767C220.542 189.583 220.354 189.345 220.198 189.052C220.042 188.759 219.923 188.403 219.84 187.985C219.758 187.567 219.717 187.079 219.717 186.52V185.22C219.717 184.52 219.78 183.935 219.905 183.462C220.034 182.989 220.215 182.61 220.45 182.325C220.684 182.036 220.965 181.829 221.294 181.704C221.626 181.579 221.997 181.517 222.407 181.517C222.739 181.517 223.044 181.558 223.321 181.64C223.602 181.718 223.852 181.845 224.071 182.02C224.29 182.192 224.475 182.423 224.628 182.712C224.784 182.997 224.903 183.347 224.985 183.761C225.067 184.175 225.108 184.661 225.108 185.22ZM224.018 186.696V185.038C224.018 184.655 223.995 184.319 223.948 184.03C223.905 183.737 223.84 183.487 223.755 183.28C223.669 183.073 223.559 182.905 223.426 182.776C223.298 182.647 223.147 182.554 222.975 182.495C222.807 182.433 222.618 182.401 222.407 182.401C222.149 182.401 221.921 182.45 221.721 182.548C221.522 182.642 221.354 182.792 221.217 182.999C221.085 183.206 220.983 183.478 220.913 183.813C220.842 184.149 220.807 184.558 220.807 185.038V186.696C220.807 187.079 220.829 187.417 220.872 187.71C220.919 188.003 220.987 188.257 221.077 188.472C221.167 188.683 221.276 188.856 221.405 188.993C221.534 189.13 221.682 189.231 221.85 189.298C222.022 189.36 222.212 189.392 222.419 189.392C222.684 189.392 222.917 189.341 223.116 189.239C223.315 189.138 223.481 188.979 223.614 188.765C223.751 188.546 223.852 188.267 223.919 187.927C223.985 187.583 224.018 187.173 224.018 186.696ZM232.016 181.634V182.243L228.483 190.165H227.34L230.868 182.524H226.251V181.634H232.016Z" fill="#333333"/>
<path d="M256.72 189.274V190.165H251.136V189.386L253.931 186.274C254.275 185.892 254.541 185.567 254.728 185.302C254.92 185.032 255.052 184.792 255.127 184.581C255.205 184.366 255.244 184.147 255.244 183.925C255.244 183.644 255.185 183.39 255.068 183.163C254.955 182.933 254.787 182.749 254.564 182.612C254.342 182.476 254.072 182.407 253.756 182.407C253.377 182.407 253.06 182.481 252.806 182.63C252.556 182.774 252.369 182.978 252.244 183.239C252.119 183.501 252.056 183.802 252.056 184.142H250.972C250.972 183.661 251.078 183.222 251.289 182.823C251.5 182.425 251.812 182.108 252.226 181.874C252.64 181.636 253.15 181.517 253.756 181.517C254.295 181.517 254.756 181.612 255.138 181.804C255.521 181.991 255.814 182.257 256.017 182.601C256.224 182.94 256.328 183.339 256.328 183.796C256.328 184.046 256.285 184.3 256.199 184.558C256.117 184.812 256.002 185.065 255.853 185.319C255.709 185.573 255.539 185.823 255.343 186.069C255.152 186.315 254.947 186.558 254.728 186.796L252.443 189.274H256.72ZM263.236 185.22V186.52C263.236 187.22 263.174 187.81 263.049 188.29C262.924 188.77 262.744 189.157 262.509 189.45C262.275 189.743 261.992 189.956 261.66 190.089C261.332 190.218 260.961 190.282 260.547 190.282C260.218 190.282 259.916 190.241 259.638 190.159C259.361 190.077 259.111 189.946 258.888 189.767C258.67 189.583 258.482 189.345 258.326 189.052C258.17 188.759 258.051 188.403 257.968 187.985C257.886 187.567 257.845 187.079 257.845 186.52V185.22C257.845 184.52 257.908 183.935 258.033 183.462C258.162 182.989 258.343 182.61 258.578 182.325C258.812 182.036 259.093 181.829 259.422 181.704C259.754 181.579 260.125 181.517 260.535 181.517C260.867 181.517 261.172 181.558 261.449 181.64C261.73 181.718 261.98 181.845 262.199 182.02C262.418 182.192 262.603 182.423 262.756 182.712C262.912 182.997 263.031 183.347 263.113 183.761C263.195 184.175 263.236 184.661 263.236 185.22ZM262.146 186.696V185.038C262.146 184.655 262.123 184.319 262.076 184.03C262.033 183.737 261.968 183.487 261.883 183.28C261.797 183.073 261.687 182.905 261.554 182.776C261.426 182.647 261.275 182.554 261.103 182.495C260.935 182.433 260.746 182.401 260.535 182.401C260.277 182.401 260.049 182.45 259.849 182.548C259.65 182.642 259.482 182.792 259.345 182.999C259.213 183.206 259.111 183.478 259.041 183.813C258.97 184.149 258.935 184.558 258.935 185.038V186.696C258.935 187.079 258.957 187.417 259 187.71C259.047 188.003 259.115 188.257 259.205 188.472C259.295 188.683 259.404 188.856 259.533 188.993C259.662 189.13 259.81 189.231 259.978 189.298C260.15 189.36 260.34 189.392 260.547 189.392C260.812 189.392 261.045 189.341 261.244 189.239C261.443 189.138 261.609 188.979 261.742 188.765C261.879 188.546 261.98 188.267 262.047 187.927C262.113 187.583 262.146 187.173 262.146 186.696ZM264.765 189.591C264.765 189.407 264.822 189.253 264.935 189.128C265.052 188.999 265.22 188.935 265.439 188.935C265.658 188.935 265.824 188.999 265.937 189.128C266.054 189.253 266.113 189.407 266.113 189.591C266.113 189.77 266.054 189.923 265.937 190.048C265.824 190.173 265.658 190.235 265.439 190.235C265.22 190.235 265.052 190.173 264.935 190.048C264.822 189.923 264.765 189.77 264.765 189.591ZM273.15 185.22V186.52C273.15 187.22 273.088 187.81 272.963 188.29C272.838 188.77 272.658 189.157 272.424 189.45C272.189 189.743 271.906 189.956 271.574 190.089C271.246 190.218 270.875 190.282 270.461 190.282C270.133 190.282 269.83 190.241 269.552 190.159C269.275 190.077 269.025 189.946 268.802 189.767C268.584 189.583 268.396 189.345 268.24 189.052C268.084 188.759 267.965 188.403 267.883 187.985C267.801 187.567 267.759 187.079 267.759 186.52V185.22C267.759 184.52 267.822 183.935 267.947 183.462C268.076 182.989 268.258 182.61 268.492 182.325C268.726 182.036 269.008 181.829 269.336 181.704C269.668 181.579 270.039 181.517 270.449 181.517C270.781 181.517 271.086 181.558 271.363 181.64C271.644 181.718 271.894 181.845 272.113 182.02C272.332 182.192 272.517 182.423 272.67 182.712C272.826 182.997 272.945 183.347 273.027 183.761C273.109 184.175 273.15 184.661 273.15 185.22ZM272.06 186.696V185.038C272.06 184.655 272.037 184.319 271.99 184.03C271.947 183.737 271.883 183.487 271.797 183.28C271.711 183.073 271.601 182.905 271.468 182.776C271.34 182.647 271.189 182.554 271.017 182.495C270.849 182.433 270.66 182.401 270.449 182.401C270.191 182.401 269.963 182.45 269.763 182.548C269.564 182.642 269.396 182.792 269.259 182.999C269.127 183.206 269.025 183.478 268.955 183.813C268.884 184.149 268.849 184.558 268.849 185.038V186.696C268.849 187.079 268.871 187.417 268.914 187.71C268.961 188.003 269.029 188.257 269.119 188.472C269.209 188.683 269.318 188.856 269.447 188.993C269.576 189.13 269.724 189.231 269.892 189.298C270.064 189.36 270.254 189.392 270.461 189.392C270.726 189.392 270.959 189.341 271.158 189.239C271.357 189.138 271.523 188.979 271.656 188.765C271.793 188.546 271.894 188.267 271.961 187.927C272.027 187.583 272.06 187.173 272.06 186.696ZM280.058 181.634V182.243L276.525 190.165H275.383L278.91 182.524H274.293V181.634H280.058Z" fill="#333333"/>
<path d="M305 189.274V190.165H299.416V189.386L302.211 186.274C302.555 185.892 302.82 185.567 303.008 185.302C303.199 185.032 303.332 184.792 303.406 184.581C303.484 184.366 303.523 184.147 303.523 183.925C303.523 183.644 303.465 183.39 303.348 183.163C303.234 182.933 303.066 182.749 302.844 182.612C302.621 182.476 302.352 182.407 302.035 182.407C301.656 182.407 301.34 182.481 301.086 182.63C300.836 182.774 300.648 182.978 300.523 183.239C300.398 183.501 300.336 183.802 300.336 184.142H299.252C299.252 183.661 299.357 183.222 299.568 182.823C299.779 182.425 300.092 182.108 300.506 181.874C300.92 181.636 301.43 181.517 302.035 181.517C302.574 181.517 303.035 181.612 303.418 181.804C303.801 181.991 304.094 182.257 304.297 182.601C304.504 182.94 304.607 183.339 304.607 183.796C304.607 184.046 304.564 184.3 304.479 184.558C304.396 184.812 304.281 185.065 304.133 185.319C303.988 185.573 303.818 185.823 303.623 186.069C303.432 186.315 303.227 186.558 303.008 186.796L300.723 189.274H305ZM311.926 187.294V188.185H305.762V187.546L309.582 181.634H310.467L309.518 183.345L306.992 187.294H311.926ZM310.736 181.634V190.165H309.652V181.634H310.736ZM313.045 189.591C313.045 189.407 313.102 189.253 313.215 189.128C313.332 188.999 313.5 188.935 313.719 188.935C313.937 188.935 314.104 188.999 314.217 189.128C314.334 189.253 314.393 189.407 314.393 189.591C314.393 189.771 314.334 189.923 314.217 190.048C314.104 190.173 313.937 190.235 313.719 190.235C313.5 190.235 313.332 190.173 313.215 190.048C313.102 189.923 313.045 189.771 313.045 189.591ZM321.43 185.22V186.521C321.43 187.22 321.367 187.81 321.242 188.29C321.117 188.771 320.937 189.157 320.703 189.45C320.469 189.743 320.186 189.956 319.854 190.089C319.525 190.218 319.154 190.282 318.74 190.282C318.412 190.282 318.109 190.241 317.832 190.159C317.555 190.077 317.305 189.946 317.082 189.767C316.863 189.583 316.676 189.345 316.52 189.052C316.363 188.759 316.244 188.403 316.162 187.985C316.08 187.567 316.039 187.079 316.039 186.521V185.22C316.039 184.521 316.102 183.935 316.227 183.462C316.355 182.989 316.537 182.61 316.771 182.325C317.006 182.036 317.287 181.829 317.615 181.704C317.947 181.579 318.318 181.517 318.729 181.517C319.061 181.517 319.365 181.558 319.643 181.64C319.924 181.718 320.174 181.845 320.393 182.021C320.611 182.192 320.797 182.423 320.949 182.712C321.105 182.997 321.225 183.347 321.307 183.761C321.389 184.175 321.43 184.661 321.43 185.22ZM320.34 186.696V185.038C320.34 184.655 320.316 184.319 320.27 184.03C320.227 183.737 320.162 183.487 320.076 183.28C319.99 183.073 319.881 182.905 319.748 182.776C319.619 182.647 319.469 182.554 319.297 182.495C319.129 182.433 318.939 182.401 318.729 182.401C318.471 182.401 318.242 182.45 318.043 182.548C317.844 182.642 317.676 182.792 317.539 182.999C317.406 183.206 317.305 183.478 317.234 183.813C317.164 184.149 317.129 184.558 317.129 185.038V186.696C317.129 187.079 317.15 187.417 317.193 187.71C317.24 188.003 317.309 188.257 317.398 188.472C317.488 188.683 317.598 188.856 317.727 188.993C317.855 189.13 318.004 189.231 318.172 189.298C318.344 189.36 318.533 189.392 318.74 189.392C319.006 189.392 319.238 189.341 319.437 189.239C319.637 189.138 319.803 188.979 319.936 188.765C320.072 188.546 320.174 188.267 320.24 187.927C320.307 187.583 320.34 187.173 320.34 186.696ZM328.338 181.634V182.243L324.805 190.165H323.662L327.189 182.524H322.572V181.634H328.338Z" fill="#333333"/>
<path d="M24.918 155.723L75.1145 122.053L125.311 88.3834L175.508 54.7137L225.704 138.888L275.901 105.218L326.097 71.5486" stroke="#0E9CFF" stroke-width="2" stroke-linejoin="round"/>
<path d="M26.1277 158.226C27.5399 158.226 28.3375 156.891 28.3375 155.723C28.3375 154.554 27.5399 153.22 26.1277 153.22C24.7155 153.22 23.918 154.554 23.918 155.723C23.918 156.892 24.7155 158.226 26.1277 158.226Z" fill="white" stroke="#0E9CFF" stroke-width="2"/>
<path d="M76.1326 124.556C77.5448 124.556 78.3424 123.222 78.3424 122.053C78.3424 120.884 77.5448 119.55 76.1326 119.55C74.7204 119.55 73.9229 120.884 73.9229 122.053C73.9229 123.222 74.7204 124.556 76.1326 124.556Z" fill="white" stroke="#0E9CFF" stroke-width="2"/>
<path d="M126.137 90.8862C127.549 90.8862 128.346 89.5518 128.346 88.3831C128.346 87.2143 127.549 85.8799 126.137 85.8799C124.724 85.8799 123.927 87.2143 123.927 88.3831C123.927 89.5518 124.724 90.8862 126.137 90.8862Z" fill="white" stroke="#0E9CFF" stroke-width="2"/>
<path d="M176.137 57.2162C177.55 57.2162 178.347 55.8818 178.347 54.713C178.347 53.5443 177.55 52.2099 176.137 52.2099C174.725 52.2099 173.928 53.5443 173.928 54.713C173.928 55.8818 174.725 57.2162 176.137 57.2162Z" fill="white" stroke="#0E9CFF" stroke-width="2"/>
<path d="M226.155 141.391C227.567 141.391 228.365 140.056 228.365 138.888C228.365 137.719 227.567 136.384 226.155 136.384C224.743 136.384 223.945 137.719 223.945 138.888C223.945 140.056 224.743 141.391 226.155 141.391Z" fill="white" stroke="#0E9CFF" stroke-width="2"/>
<path d="M276.168 107.721C277.58 107.721 278.378 106.387 278.378 105.218C278.378 104.049 277.58 102.715 276.168 102.715C274.756 102.715 273.958 104.049 273.958 105.218C273.958 106.387 274.756 107.721 276.168 107.721Z" fill="white" stroke="#0E9CFF" stroke-width="2"/>
<path d="M326.161 74.0513C327.573 74.0513 328.371 72.7169 328.371 71.5482C328.371 70.3794 327.573 69.045 326.161 69.045C324.749 69.045 323.951 70.3794 323.951 71.5482C323.951 72.7169 324.749 74.0513 326.161 74.0513Z" fill="white" stroke="#0E9CFF" stroke-width="2"/>
</svg>
